<svg width="10" height="10" viewBox="0 0 10 10" fill="none" xmlns="http://www.w3.org/2000/svg">
<g clip-path="url(#clip0_14037_653)">
<path d="M0.183273 4.57584C0.300477 4.45867 0.45942 4.39285 0.625148 4.39285C0.790875 4.39285 0.949818 4.45867 1.06702 4.57584L4.26327 7.7725C4.36 7.86926 4.47485 7.94601 4.60125 7.99838C4.72765 8.05075 4.86312 8.0777 4.99994 8.0777C5.13676 8.0777 5.27223 8.05075 5.39863 7.99838C5.52503 7.94601 5.63987 7.86926 5.73661 7.7725L8.93286 4.57584C8.99002 4.51438 9.05897 4.46506 9.1356 4.43083C9.21224 4.3966 9.29498 4.37815 9.3789 4.3766C9.46282 4.37504 9.54619 4.3904 9.62404 4.42176C9.70189 4.45312 9.77263 4.49984 9.83204 4.55913C9.89144 4.61842 9.93829 4.68907 9.9698 4.76686C10.0013 4.84466 10.0168 4.928 10.0154 5.01192C10.014 5.09584 9.99573 5.17862 9.96165 5.25532C9.92756 5.33201 9.87837 5.40106 9.81702 5.45834L6.62036 8.655C6.19059 9.08475 5.60771 9.32618 4.99994 9.32618C4.39217 9.32618 3.80929 9.08475 3.37952 8.655L0.182856 5.45834C0.0660682 5.34118 0.000488281 5.18251 0.000488281 5.01709C0.000488281 4.85167 0.0664849 4.69299 0.183273 4.57584Z" fill="#509170"/>
<path d="M0.183322 0.599587C0.300527 0.482418 0.459469 0.416595 0.625197 0.416595C0.790925 0.416595 0.949867 0.482418 1.06707 0.599587L4.85249 4.38542C4.89156 4.42448 4.94454 4.44642 4.99978 4.44642C5.05502 4.44642 5.108 4.42448 5.14707 4.38542L8.93291 0.600004C9.05106 0.488081 9.20822 0.426663 9.37096 0.428811C9.5337 0.430958 9.68918 0.496501 9.80434 0.611502C9.91951 0.726503 9.98527 0.881892 9.98765 1.04463C9.99002 1.20736 9.92883 1.3646 9.81707 1.48292L6.03124 5.26667C5.75747 5.53968 5.38662 5.693 4.99999 5.693C4.61336 5.693 4.2425 5.53968 3.96874 5.26667L0.182905 1.48292C0.0658634 1.36573 0.00012207 1.20688 0.00012207 1.04125C0.00012207 0.875628 0.0662801 0.716775 0.183322 0.599587Z" fill="#509170"/>
</g>
<defs>
<clipPath id="clip0_14037_653">
<rect width="10" height="10" fill="white"/>
</clipPath>
</defs>
</svg>
