<svg width="10" height="10" viewBox="0 0 10 10" fill="none" xmlns="http://www.w3.org/2000/svg">
<g clip-path="url(#clip0_14037_875)">
<path d="M9.81667 5.42416C9.69946 5.54133 9.54052 5.60715 9.37479 5.60715C9.20906 5.60715 9.05012 5.54133 8.93292 5.42416L5.73667 2.2275C5.63994 2.13074 5.52509 2.05399 5.39869 2.00162C5.27229 1.94926 5.13682 1.9223 5 1.9223C4.86318 1.9223 4.72771 1.94926 4.60131 2.00162C4.47491 2.05399 4.36006 2.13074 4.26333 2.2275L1.06708 5.42416C1.00992 5.48562 0.940968 5.53494 0.864335 5.56917C0.787701 5.6034 0.704958 5.62185 0.621041 5.62341C0.537125 5.62496 0.453752 5.60961 0.3759 5.57824C0.298047 5.54688 0.227309 5.50016 0.167905 5.44087C0.1085 5.38158 0.0616473 5.31093 0.0301398 5.23314C-0.00136769 5.15534 -0.016884 5.072 -0.015483 4.98808C-0.0140821 4.90416 0.00420651 4.82138 0.0382937 4.74469C0.0723799 4.66799 0.121566 4.59894 0.182916 4.54166L3.37958 1.345C3.80935 0.915249 4.39223 0.67382 5 0.67382C5.60777 0.673819 6.19065 0.915249 6.62042 1.345L9.81708 4.54166C9.93387 4.65882 9.99945 4.81749 9.99945 4.98291C9.99945 5.14833 9.93345 5.30701 9.81667 5.42416Z" fill="#509170"/>
<path d="M9.81668 9.40041C9.69947 9.51758 9.54053 9.5834 9.3748 9.5834C9.20908 9.5834 9.05013 9.51758 8.93293 9.40041L5.14751 5.61458C5.10844 5.57552 5.05546 5.55358 5.00022 5.55358C4.94498 5.55358 4.892 5.57552 4.85293 5.61458L1.0671 9.4C0.948937 9.51192 0.79178 9.57334 0.629043 9.57119C0.466306 9.56904 0.310824 9.5035 0.19566 9.3885C0.0804957 9.2735 0.0147332 9.11811 0.0123557 8.95537C0.00997815 8.79264 0.0711726 8.6354 0.182928 8.51708L3.96876 4.73333C4.24253 4.46032 4.61338 4.307 5.00001 4.307C5.38664 4.307 5.7575 4.46032 6.03126 4.73333L9.8171 8.51708C9.93414 8.63427 9.99988 8.79312 9.99988 8.95875C9.99988 9.12437 9.93372 9.28323 9.81668 9.40041Z" fill="#509170"/>
</g>
<defs>
<clipPath id="clip0_14037_875">
<rect width="10" height="10" fill="white" transform="translate(10 10) rotate(180)"/>
</clipPath>
</defs>
</svg>
