<svg width="127" height="127" viewBox="0 0 127 127" fill="none" xmlns="http://www.w3.org/2000/svg">
<g opacity="0.8">
<path d="M67.4688 11.9062V17.8594H7.9375V11.9062C7.9375 9.72344 9.72344 7.9375 11.9062 7.9375H63.5C65.6828 7.9375 67.4688 9.72344 67.4688 11.9062Z" fill="#81859A"/>
<path d="M67.4688 17.8594V83.3438C67.4688 85.5266 65.6828 87.3125 63.5 87.3125H11.9062C9.72344 87.3125 7.9375 85.5266 7.9375 83.3438V17.8594H67.4688Z" fill="#E7E8EC"/>
<path d="M55.5625 36.7109H19.8438C18.7523 36.7109 17.8594 35.818 17.8594 34.7266C17.8594 33.6352 18.7523 32.7422 19.8438 32.7422H55.5625C56.6539 32.7422 57.5469 33.6352 57.5469 34.7266C57.5469 35.818 56.6539 36.7109 55.5625 36.7109Z" fill="#AFB1BE"/>
<path d="M55.5625 48.6172H19.8438C18.7523 48.6172 17.8594 47.7242 17.8594 46.6328C17.8594 45.5414 18.7523 44.6484 19.8438 44.6484H55.5625C56.6539 44.6484 57.5469 45.5414 57.5469 46.6328C57.5469 47.7242 56.6539 48.6172 55.5625 48.6172Z" fill="#AFB1BE"/>
<path d="M55.5625 60.5234H19.8438C18.7523 60.5234 17.8594 59.6305 17.8594 58.5391C17.8594 57.4477 18.7523 56.5547 19.8438 56.5547H55.5625C56.6539 56.5547 57.5469 57.4477 57.5469 58.5391C57.5469 59.6305 56.6539 60.5234 55.5625 60.5234Z" fill="#AFB1BE"/>
<path d="M55.5625 72.4297H19.8438C18.7523 72.4297 17.8594 71.5367 17.8594 70.4453C17.8594 69.3539 18.7523 68.4609 19.8438 68.4609H55.5625C56.6539 68.4609 57.5469 69.3539 57.5469 70.4453C57.5469 71.5367 56.6539 72.4297 55.5625 72.4297Z" fill="#AFB1BE"/>
<path d="M119.062 43.6562V49.6094H59.5312V43.6562C59.5312 41.4734 61.3172 39.6875 63.5 39.6875H115.094C117.277 39.6875 119.062 41.4734 119.062 43.6562Z" fill="#81859A"/>
<path d="M119.062 49.6094V115.094C119.062 117.277 117.277 119.062 115.094 119.062H63.5C61.3172 119.062 59.5312 117.277 59.5312 115.094V49.6094H119.062Z" fill="#E7E8EC"/>
<path d="M107.156 68.4609H71.4375C70.3461 68.4609 69.4531 67.568 69.4531 66.4766C69.4531 65.3852 70.3461 64.4922 71.4375 64.4922H107.156C108.248 64.4922 109.141 65.3852 109.141 66.4766C109.141 67.568 108.248 68.4609 107.156 68.4609Z" fill="#AFB1BE"/>
<path d="M107.156 80.3672H71.4375C70.3461 80.3672 69.4531 79.4742 69.4531 78.3828C69.4531 77.2914 70.3461 76.3984 71.4375 76.3984H107.156C108.248 76.3984 109.141 77.2914 109.141 78.3828C109.141 79.4742 108.248 80.3672 107.156 80.3672Z" fill="#AFB1BE"/>
<path d="M107.156 92.2734H71.4375C70.3461 92.2734 69.4531 91.3805 69.4531 90.2891C69.4531 89.1977 70.3461 88.3047 71.4375 88.3047H107.156C108.248 88.3047 109.141 89.1977 109.141 90.2891C109.141 91.3805 108.248 92.2734 107.156 92.2734Z" fill="#AFB1BE"/>
<path d="M107.156 104.18H71.4375C70.3461 104.18 69.4531 103.287 69.4531 102.195C69.4531 101.104 70.3461 100.211 71.4375 100.211H107.156C108.248 100.211 109.141 101.104 109.141 102.195C109.141 103.287 108.248 104.18 107.156 104.18Z" fill="#AFB1BE"/>
<path d="M93.2656 29.7656V35.7188H33.7344V29.7656C33.7344 27.5828 35.5203 25.7969 37.7031 25.7969H89.2969C91.4797 25.7969 93.2656 27.5828 93.2656 29.7656Z" fill="#999BAD"/>
<path d="M93.2656 35.7188V101.203C93.2656 103.386 91.4797 105.172 89.2969 105.172H37.7031C35.5203 105.172 33.7344 103.386 33.7344 101.203V35.7188H93.2656Z" fill="#F5F5F5"/>
<path d="M49.6095 64.9288C49.0935 64.9288 48.5974 64.7303 48.2005 64.3533C47.4266 63.5794 47.4266 62.3292 48.2005 61.5553L55.4634 54.2925C56.2373 53.5186 57.4874 53.5186 58.2613 54.2925C59.0352 55.0664 59.0352 56.3166 58.2613 57.0905L50.9985 64.3533C50.6016 64.7502 50.1055 64.9288 49.5896 64.9288H49.6095Z" fill="#999BAD"/>
<path d="M56.8723 64.9288C56.3563 64.9288 55.8602 64.7303 55.4634 64.3533L48.2005 57.0905C47.4266 56.3166 47.4266 55.0664 48.2005 54.2925C48.9745 53.5186 50.2246 53.5186 50.9985 54.2925L58.2613 61.5553C59.0352 62.3292 59.0352 63.5794 58.2613 64.3533C57.8645 64.7502 57.3684 64.9288 56.8524 64.9288H56.8723Z" fill="#999BAD"/>
<path d="M70.128 64.9288C69.6121 64.9288 69.116 64.7303 68.7191 64.3533C67.9452 63.5794 67.9452 62.3292 68.7191 61.5553L75.9819 54.2925C76.7558 53.5186 78.006 53.5186 78.7799 54.2925C79.5538 55.0664 79.5538 56.3166 78.7799 57.0905L71.5171 64.3533C71.1202 64.7502 70.6241 64.9288 70.1082 64.9288H70.128Z" fill="#999BAD"/>
<path d="M77.3908 64.9288C76.8749 64.9288 76.3788 64.7303 75.9819 64.3533L68.7191 57.0905C67.9452 56.3166 67.9452 55.0664 68.7191 54.2925C69.493 53.5186 70.7432 53.5186 71.5171 54.2925L78.7799 61.5553C79.5538 62.3292 79.5538 63.5794 78.7799 64.3533C78.383 64.7502 77.8869 64.9288 77.371 64.9288H77.3908Z" fill="#999BAD"/>
<path d="M76.3389 84.3955C75.6245 84.3955 74.9498 84.0184 74.5927 83.3438C72.4098 79.2361 68.1633 76.6961 63.5198 76.6961C58.8764 76.6961 54.6298 79.2361 52.447 83.3438C51.9311 84.3161 50.7206 84.6733 49.7681 84.1573C48.7958 83.6414 48.4386 82.4309 48.9545 81.4784C51.8319 76.0809 57.408 72.7273 63.5397 72.7273C69.6714 72.7273 75.2475 76.0809 78.1248 81.4784C78.6408 82.4508 78.2836 83.6414 77.3113 84.1573C77.0136 84.3161 76.6961 84.3955 76.3786 84.3955H76.3389Z" fill="#999BAD"/>
</g>
</svg>
