<svg width="24" height="24" viewBox="0 0 24 24" fill="none" xmlns="http://www.w3.org/2000/svg">
<g clip-path="url(#clip0_12380_544)">
<path d="M24 12C24 12.552 23.553 13 23 13H1C0.448 13 0 12.552 0 12C0 11.448 0.448 11 1 11H3.059C3.559 6.507 7.376 3 12 3C13.964 3 15.832 3.624 17.401 4.805C17.842 5.137 17.93 5.764 17.598 6.205C17.267 6.646 16.641 6.736 16.198 6.403C14.978 5.486 13.527 5 12 5C8.481 5 5.568 7.613 5.08 11H14.844C14.479 9.845 13.409 9 12.135 9C11.327 9 10.552 9.347 10.01 9.952C9.64 10.363 9.009 10.397 8.598 10.029C8.187 9.66 8.152 9.028 8.521 8.617C9.442 7.59 10.759 7 12.135 7C14.519 7 16.497 8.731 16.902 11H18.92C18.819 10.291 18.617 9.604 18.3 8.953C18.059 8.456 18.265 7.858 18.762 7.616C19.259 7.375 19.858 7.582 20.099 8.078C20.55 9.005 20.832 9.985 20.944 11H23C23.553 11 24 11.448 24 12ZM7 22H5C3.346 22 2 20.654 2 19V17C2 16.448 1.552 16 1 16C0.448 16 0 16.448 0 17V19C0 21.757 2.243 24 5 24H7C7.552 24 8 23.552 8 23C8 22.448 7.552 22 7 22ZM23 16C22.447 16 22 16.448 22 17V19C22 20.654 20.654 22 19 22H17C16.447 22 16 22.448 16 23C16 23.552 16.447 24 17 24H19C21.757 24 24 21.757 24 19V17C24 16.448 23.553 16 23 16ZM19 0H17C16.447 0 16 0.448 16 1C16 1.552 16.447 2 17 2H19C20.654 2 22 3.346 22 5V7C22 7.552 22.447 8 23 8C23.553 8 24 7.552 24 7V5C24 2.243 21.757 0 19 0ZM1 8C1.552 8 2 7.552 2 7V5C2 3.346 3.346 2 5 2H7C7.552 2 8 1.552 8 1C8 0.448 7.552 0 7 0H5C2.243 0 0 2.243 0 5V7C0 7.552 0.448 8 1 8ZM19.816 19.506C20.201 18.361 20.467 17.233 20.647 16.162C20.75 15.553 20.281 15 19.663 15H19.657C19.166 15 18.759 15.359 18.676 15.843C18.511 16.813 18.268 17.832 17.92 18.864C17.75 19.367 17.976 19.918 18.464 20.127C19.009 20.361 19.627 20.068 19.816 19.506ZM15.607 15H15.597C15.136 15 14.725 15.315 14.63 15.767C14.424 16.743 14.122 17.714 13.693 18.535C13.464 18.973 13.594 19.508 13.995 19.796C14.485 20.148 15.185 19.997 15.462 19.461C15.964 18.492 16.333 17.359 16.583 16.204C16.717 15.585 16.24 15 15.606 15H15.607ZM11.51 15C11.049 15 10.666 15.321 10.543 15.765C10.195 17.025 9.632 18.109 8.823 19.098C8.507 19.484 8.554 20.054 8.907 20.407C9.33 20.83 10.027 20.784 10.403 20.318C11.37 19.12 12.053 17.789 12.474 16.266C12.649 15.632 12.167 15.001 11.51 15.001V15ZM7.585 15.098C7.087 14.86 6.49 15.071 6.252 15.57C5.689 16.75 4.824 17.012 4.762 17.029C4.233 17.159 3.904 17.69 4.026 18.223C4.132 18.686 4.544 19 5 19C5.504 18.92 6.897 18.655 8.057 16.431C8.295 15.932 8.084 15.336 7.585 15.098Z" fill="#509170"/>
</g>
<defs>
<clipPath id="clip0_12380_544">
<rect width="24" height="24" fill="white"/>
</clipPath>
</defs>
</svg>
