<svg width="24" height="24" viewBox="0 0 24 24" fill="none" xmlns="http://www.w3.org/2000/svg">
<path d="M15.476 15C15.2108 15 14.9564 15.1054 14.7689 15.2929C14.5814 15.4804 14.476 15.7348 14.476 16V19C14.476 19.7956 14.1599 20.5587 13.5973 21.1213C13.0347 21.6839 12.2716 22 11.476 22H5C4.20435 22 3.44129 21.6839 2.87868 21.1213C2.31607 20.5587 2 19.7956 2 19V5C2 4.20435 2.31607 3.44129 2.87868 2.87868C3.44129 2.31607 4.20435 2 5 2H11.476C12.2716 2 13.0347 2.31607 13.5973 2.87868C14.1599 3.44129 14.476 4.20435 14.476 5V8C14.476 8.26522 14.5814 8.51957 14.7689 8.70711C14.9564 8.89464 15.2108 9 15.476 9C15.7412 9 15.9956 8.89464 16.1831 8.70711C16.3706 8.51957 16.476 8.26522 16.476 8V5C16.4744 3.67441 15.9471 2.40356 15.0098 1.46622C14.0724 0.528882 12.8016 0.00158786 11.476 0H5C3.67441 0.00158786 2.40356 0.528882 1.46622 1.46622C0.528882 2.40356 0.00158786 3.67441 0 5L0 19C0.00158786 20.3256 0.528882 21.5964 1.46622 22.5338C2.40356 23.4711 3.67441 23.9984 5 24H11.476C12.8016 23.9984 14.0724 23.4711 15.0098 22.5338C15.9471 21.5964 16.4744 20.3256 16.476 19V16C16.476 15.7348 16.3706 15.4804 16.1831 15.2929C15.9956 15.1054 15.7412 15 15.476 15Z" fill="#F5F5F5"/>
<path d="M4.87735 9.87859L9.46335 5.29259C9.5556 5.19708 9.66595 5.1209 9.78795 5.06849C9.90995 5.01608 10.0412 4.9885 10.174 4.98734C10.3067 4.98619 10.4384 5.01149 10.5613 5.06177C10.6842 5.11205 10.7959 5.18631 10.8897 5.2802C10.9836 5.37409 11.0579 5.48574 11.1082 5.60864C11.1585 5.73154 11.1838 5.86321 11.1826 5.99599C11.1814 6.12877 11.1539 6.25999 11.1015 6.382C11.049 6.504 10.9729 6.61435 10.8774 6.70659L6.61535 10.9696L21.7444 10.9996C22.0096 10.9996 22.2639 11.1049 22.4515 11.2925C22.639 11.48 22.7444 11.7344 22.7444 11.9996C22.7444 12.2648 22.639 12.5192 22.4515 12.7067C22.2639 12.8942 22.0096 12.9996 21.7444 12.9996L6.55635 12.9686L10.8794 17.2926C10.9749 17.3848 11.051 17.4952 11.1035 17.6172C11.1559 17.7392 11.1834 17.8704 11.1846 18.0032C11.1858 18.136 11.1605 18.2676 11.1102 18.3905C11.0599 18.5134 10.9856 18.6251 10.8917 18.719C10.7979 18.8129 10.6862 18.8871 10.5633 18.9374C10.4404 18.9877 10.3087 19.013 10.176 19.0118C10.0432 19.0107 9.91195 18.9831 9.78995 18.9307C9.66794 18.8783 9.5576 18.8021 9.46535 18.7066L4.87935 14.1206C4.31667 13.5583 4.00037 12.7955 3.99999 12C3.99962 11.2045 4.3152 10.4414 4.87735 9.87859Z" fill="#F5F5F5"/>
</svg>
