<svg id="Layer_1" data-name="Layer 1" xmlns="http://www.w3.org/2000/svg" viewBox="0 0 1080 1080"><defs><style>.cls-1{fill:#262938;}</style></defs><g id="_Radial_Repeat_" data-name="&lt;Radial Repeat&gt;"><g id="_Radial_Repeat_2" data-name="&lt;Radial Repeat&gt;"><path class="cls-1" d="M481.66,600.67l-.12.07c-.08-.1-.16-.19-.23-.29C481.42,600.53,481.54,600.6,481.66,600.67Z"/><path class="cls-1" d="M601.1,581.86a22.8,22.8,0,0,0-4.4-6.47,31.27,31.27,0,0,0-7.45-5.51,39.35,39.35,0,0,0-8.57-3.34.25.25,0,0,1-.14,0l-.12,0a47.35,47.35,0,0,0-14.73-1.4c-.61,0-1.23.08-1.84.15q-2.26.22-4.53.66l-2.29.51a38.08,38.08,0,0,0-15.16,7.44c-.18.15-.35.29-.51.45-.39-.38-.78-.73-1.18-1.07a37.16,37.16,0,0,0-15.1-7.54c-.77-.18-1.54-.36-2.31-.52a49.12,49.12,0,0,0-7.6-.92c-.78,0-1.55-.06-2.33-.05a49.67,49.67,0,0,0-11.63,1.42.58.58,0,0,1-.14,0,.28.28,0,0,1-.13,0A41.84,41.84,0,0,0,492,569a34.07,34.07,0,0,0-7.88,5.46,24.26,24.26,0,0,0-4.81,6.44,18.53,18.53,0,0,0-2,7.76v0a17.06,17.06,0,0,0,.34,3.83,20.11,20.11,0,0,0,2.08,5.53h0a20,20,0,0,0,1.6,2.43c.11.08.23.15.35.22a20.53,20.53,0,0,0,5.66,2.49,16.72,16.72,0,0,0,3.77.53h0a17.43,17.43,0,0,0,7.65-1.64,22,22,0,0,0,6.37-4.48,31.37,31.37,0,0,0,5.43-7.55,40.81,40.81,0,0,0,3.29-8.71.31.31,0,0,1,0-.13.28.28,0,0,1,0-.13,50.14,50.14,0,0,0,1.38-15,22.07,22.07,0,0,1,7.59,3,22.58,22.58,0,0,1,7.64,8.16,21.47,21.47,0,0,1,2.65,11.17,20.88,20.88,0,0,1-.16,2.14q-1.14,4.59-6.2,8.68a63,63,0,0,1-11.8,7.43q-4.08,1.74-8.12,3.15t-6.8,2.22l-1.2.34q-.87.24-1.74.54a33.07,33.07,0,0,0-7.08,3.44,27.69,27.69,0,0,0-8.29,8,21,21,0,0,0-3.55,11.07,19.69,19.69,0,0,0,.26,3.83,21.07,21.07,0,0,0,4.63,10,28,28,0,0,0,8.55,6.83A34.67,34.67,0,0,0,502,659.57a38.78,38.78,0,0,0,11.74.1A35.05,35.05,0,0,0,525.06,656a28.87,28.87,0,0,0,9.27-7.66,23.19,23.19,0,0,0,3.69-6.85,20,20,0,0,0,1-7.73c-.07-.88-.18-1.75-.33-2.63-.4.68-.76,1.26-1.08,1.76a19.33,19.33,0,0,1-3,3.57,5.54,5.54,0,0,1-4,1.73,26.66,26.66,0,0,1-4.55,12.17,19.74,19.74,0,0,1-9,7.26,36.85,36.85,0,0,1-6.66,1,16.25,16.25,0,0,1-9-3.54,21.16,21.16,0,0,1-6.23-8.26,26.21,26.21,0,0,1-2.1-11.35,28.68,28.68,0,0,1,.51-4.8,16.08,16.08,0,0,1,4.58-7.34,33.19,33.19,0,0,1,7.64-5.32,58.57,58.57,0,0,1,8.41-3.55q4.11-1.35,6.88-2c1-.18,2-.39,3-.64s1.67-.43,2.47-.69a41.44,41.44,0,0,0,8.55-3.73A30.59,30.59,0,0,0,540,604a27.34,27.34,0,0,0,5.16,4.08,38.43,38.43,0,0,0,8.19,3.79c.78.26,1.57.49,2.39.7s1.95.48,2.93.67c1.8.44,4,1.12,6.65,2a53.66,53.66,0,0,1,8.06,3.59,30.74,30.74,0,0,1,7.23,5.38,15.33,15.33,0,0,1,4.12,7.36,29,29,0,0,1,.27,4.8,27.22,27.22,0,0,1-2.62,11.33,22.41,22.41,0,0,1-6.51,8.24,16.42,16.42,0,0,1-9,3.47,34.81,34.81,0,0,1-6.46-1.05,18.17,18.17,0,0,1-8.49-7.32A25.89,25.89,0,0,1,548,638.9a5.16,5.16,0,0,1-3.81-1.76,18.35,18.35,0,0,1-2.75-3.58c-.29-.51-.61-1.1-1-1.76-.19.87-.34,1.74-.45,2.62a20.19,20.19,0,0,0,.59,7.73,21.93,21.93,0,0,0,3.28,6.88,26.7,26.7,0,0,0,8.7,7.71,32.57,32.57,0,0,0,10.95,3.71,37,37,0,0,0,11.5,0,34.74,34.74,0,0,0,10.22-3.4,29.39,29.39,0,0,0,8.72-6.78,22.44,22.44,0,0,0,5-10,21.41,21.41,0,0,0,.45-3.82,20.55,20.55,0,0,0-2.94-11.09,26,26,0,0,0-7.72-8,30,30,0,0,0-6.78-3.47c-.56-.21-1.11-.4-1.67-.56l-1.16-.35c-1.79-.56-4-1.32-6.56-2.27s-5.18-2-7.79-3.2a57.76,57.76,0,0,1-11.2-7.48q-4.75-4.14-5.65-8.72c0-.69-.07-1.41,0-2.14A22.63,22.63,0,0,1,551.11,578a23.54,23.54,0,0,1,7.88-8.11,22.15,22.15,0,0,1,4.81-2.25,52.74,52.74,0,0,0,1.4,11.79.43.43,0,0,1,0,.14.35.35,0,0,1,0,.14,43.83,43.83,0,0,0,3.23,9.05,34.37,34.37,0,0,0,5.39,8,23.7,23.7,0,0,0,6.34,4.9,17.89,17.89,0,0,0,7.64,2.07h0a17.17,17.17,0,0,0,3.78-.35,19.35,19.35,0,0,0,5.45-2.11,18.87,18.87,0,0,0,2.4-1.64c.08-.11.14-.23.22-.34a21.63,21.63,0,0,0,2.45-5.75,17.82,17.82,0,0,0,.51-3.84v0A18.24,18.24,0,0,0,601.1,581.86Zm-87.14-10c-.07,1.1-.17,2.18-.31,3.26v0a22.25,22.25,0,0,1-4.06,9.62,22,22,0,0,1-7.82,6.59,21.06,21.06,0,0,1-10.27,2.25,22,22,0,0,1-3.65-.38,22.77,22.77,0,0,1-.4-4.92,22.18,22.18,0,0,1,2.78-10.41,23.72,23.72,0,0,1,7-7.91,23.34,23.34,0,0,1,9.89-4.06h0c1.09-.13,2.18-.23,3.29-.3h.61l.88,0c.44,0,.89.07,1.33.12a26.05,26.05,0,0,1,.66,4.58c0,.31,0,.59,0,.87ZM592.41,593a22.17,22.17,0,0,1-4.85.41,21.44,21.44,0,0,1-10.26-2.83,23.77,23.77,0,0,1-7.78-7.12,24.19,24.19,0,0,1-4-10v0c-.13-1.1-.23-2.21-.29-3.34,0-.13,0-.34,0-.62s0-.58,0-.89c0-.46.06-.91.12-1.35a24.28,24.28,0,0,1,4.5-.67l.86,0h.6c1.08.08,2.15.18,3.21.32h0a21.57,21.57,0,0,1,9.47,4.12,22.17,22.17,0,0,1,8.71,18.38A24.94,24.94,0,0,1,592.41,593Z"/><path class="cls-1" d="M597.13,601.23a18.87,18.87,0,0,0,2.4-1.64"/></g><ellipse class="cls-1" cx="625.72" cy="634.56" rx="14.3" ry="14.53"/></g><g id="_Radial_Repeat_3" data-name="&lt;Radial Repeat&gt;"><g id="_Radial_Repeat_4" data-name="&lt;Radial Repeat&gt;"><path class="cls-1" d="M480.47,480.41l-.22.33-.06-.11Z"/><path class="cls-1" d="M601.47,440.74a21.15,21.15,0,0,0-4.62-10,27.84,27.84,0,0,0-8.55-6.83A34.67,34.67,0,0,0,578,420.43a38.79,38.79,0,0,0-11.74-.1A35.05,35.05,0,0,0,554.94,424a29,29,0,0,0-9.27,7.65,23.24,23.24,0,0,0-3.69,6.86,19.57,19.57,0,0,0-1,7.73,25.66,25.66,0,0,0,.32,2.62c.4-.67.75-1.25,1.08-1.75a19.65,19.65,0,0,1,3-3.57,5.54,5.54,0,0,1,4-1.73,26.65,26.65,0,0,1,4.54-12.17,19.75,19.75,0,0,1,9-7.26,36.85,36.85,0,0,1,6.66-1,16.25,16.25,0,0,1,9,3.54,21.16,21.16,0,0,1,6.23,8.26,26.21,26.21,0,0,1,2.11,11.35,29.76,29.76,0,0,1-.52,4.8,16.16,16.16,0,0,1-4.58,7.34,33.19,33.19,0,0,1-7.64,5.32,58.1,58.1,0,0,1-8.41,3.55q-4.11,1.35-6.88,2c-1,.18-2,.39-3,.64s-1.67.43-2.47.69a41.21,41.21,0,0,0-8.55,3.73,30,30,0,0,0-4.8,3.43,26.78,26.78,0,0,0-5.17-4.08,37.91,37.91,0,0,0-8.18-3.79c-.77-.26-1.57-.49-2.39-.7s-1.95-.48-2.94-.67c-1.78-.44-4-1.12-6.64-2a53.66,53.66,0,0,1-8.06-3.59,30.74,30.74,0,0,1-7.23-5.38,15.33,15.33,0,0,1-4.12-7.36,29,29,0,0,1-.27-4.8,27.37,27.37,0,0,1,2.62-11.33,22.41,22.41,0,0,1,6.51-8.24,16.39,16.39,0,0,1,9-3.47,34.64,34.64,0,0,1,6.47,1,18.19,18.19,0,0,1,8.5,7.32A26.07,26.07,0,0,1,532,441.1a5.16,5.16,0,0,1,3.81,1.76,18.35,18.35,0,0,1,2.75,3.58c.29.51.61,1.1,1,1.76.19-.87.34-1.74.45-2.62a20,20,0,0,0-.59-7.73A22.28,22.28,0,0,0,536.1,431a27,27,0,0,0-8.71-7.7,32.57,32.57,0,0,0-10.95-3.71,37,37,0,0,0-11.5,0,34.9,34.9,0,0,0-10.23,3.4,29.47,29.47,0,0,0-8.71,6.78,22.34,22.34,0,0,0-5,10,20.56,20.56,0,0,0,2.49,14.91,25.78,25.78,0,0,0,7.73,8,29.89,29.89,0,0,0,6.77,3.47c.55.21,1.11.4,1.67.56l1.16.35q2.68.84,6.55,2.27c2.59,1,5.19,2,7.81,3.2a58.69,58.69,0,0,1,11.2,7.48q4.74,4.14,5.64,8.72c0,.69.06,1.41,0,2.14A22.73,22.73,0,0,1,528.9,502a23.54,23.54,0,0,1-7.89,8.1,21.39,21.39,0,0,1-4.82,2.26,52.24,52.24,0,0,0-1.39-11.8.31.31,0,0,1,0-.13.25.25,0,0,1,0-.14,43.83,43.83,0,0,0-3.23-9.05,34.75,34.75,0,0,0-5.38-8,23.9,23.9,0,0,0-6.35-4.9,17.88,17.88,0,0,0-7.63-2.07h0a16.45,16.45,0,0,0-3.77.35,19.23,19.23,0,0,0-5.45,2.11,18.6,18.6,0,0,0-2.41,1.64l-.22.33a21.35,21.35,0,0,0-2.44,5.76,17.23,17.23,0,0,0-.52,3.84v0a18.09,18.09,0,0,0,1.61,7.78,22.58,22.58,0,0,0,4.41,6.46,30.8,30.8,0,0,0,7.44,5.52,39.23,39.23,0,0,0,8.58,3.34.19.19,0,0,1,.12,0,.28.28,0,0,1,.13,0,47.35,47.35,0,0,0,14.73,1.4,22.59,22.59,0,0,1-11,15.47,20.61,20.61,0,0,1-11,2.69,20.34,20.34,0,0,1-2.11-.15c-3-.78-5.86-2.87-8.54-6.3a63.67,63.67,0,0,1-7.31-12c-1.15-2.76-2.18-5.52-3.1-8.24s-1.65-5-2.19-6.91c-.11-.4-.23-.81-.34-1.22-.16-.59-.33-1.18-.53-1.77a33.64,33.64,0,0,0-3.38-7.19,28.15,28.15,0,0,0-7.86-8.42A20.29,20.29,0,0,0,446,477.3a18.36,18.36,0,0,0-3.77.27,20.45,20.45,0,0,0-9.86,4.69,28.29,28.29,0,0,0-6.72,8.69,35.88,35.88,0,0,0-3.41,10.42,40.24,40.24,0,0,0-.11,11.91,36.45,36.45,0,0,0,3.59,11.55,29.15,29.15,0,0,0,7.53,9.41A22.58,22.58,0,0,0,440,538a19,19,0,0,0,7.61,1,25.31,25.31,0,0,0,2.58-.34c-.66-.39-1.23-.76-1.72-1.09a19.05,19.05,0,0,1-3.52-3,5.72,5.72,0,0,1-1.7-4,25.8,25.8,0,0,1-12-4.61,19.83,19.83,0,0,1-7.15-9.18,38.84,38.84,0,0,1-1-6.76,16.84,16.84,0,0,1,3.48-9.14,20.84,20.84,0,0,1,8.15-6.31A25.1,25.1,0,0,1,446,492.34a28.89,28.89,0,0,1,4.73.52,15.89,15.89,0,0,1,7.23,4.66,33.77,33.77,0,0,1,5.24,7.76,62.56,62.56,0,0,1,3.5,8.54c.88,2.78,1.54,5.11,2,7,.18,1,.39,2.06.63,3.07s.43,1.7.68,2.51a42.61,42.61,0,0,0,3.68,8.68A30.26,30.26,0,0,0,477,540a27.63,27.63,0,0,0-4,5.24,39.75,39.75,0,0,0-3.73,8.32c-.25.78-.48,1.59-.69,2.42-.25,1-.47,2-.65,3q-.66,2.72-2,6.74a55.53,55.53,0,0,1-3.54,8.19,30.69,30.69,0,0,1-5.3,7.34,15,15,0,0,1-7.24,4.19,28.19,28.19,0,0,1-4.73.27A26.21,26.21,0,0,1,433.9,583a22.11,22.11,0,0,1-8.11-6.6,17,17,0,0,1-3.42-9.12,35.91,35.91,0,0,1,1-6.58,18.32,18.32,0,0,1,7.2-8.62,25,25,0,0,1,12-3.91,5.33,5.33,0,0,1,1.73-3.88,18.41,18.41,0,0,1,3.53-2.79l1.73-1c-.86-.19-1.72-.35-2.58-.46a19,19,0,0,0-7.61.6,21.3,21.3,0,0,0-6.78,3.32,26.91,26.91,0,0,0-7.59,8.84,33.82,33.82,0,0,0-3.65,11.13,38.75,38.75,0,0,0,0,11.68A35.66,35.66,0,0,0,424.78,586a29.63,29.63,0,0,0,6.67,8.85,22,22,0,0,0,9.82,5.1,21,21,0,0,0,3.78.46,19.92,19.92,0,0,0,10.92-3,25.8,25.8,0,0,0,7.9-7.84,30.46,30.46,0,0,0,3.42-6.88c.21-.57.39-1.13.55-1.7.12-.39.24-.79.35-1.18q.82-2.71,2.23-6.66t3.15-7.92a59.45,59.45,0,0,1,7.37-11.37q4.06-4.83,8.59-5.74c.68,0,1.38-.06,2.11,0a21.66,21.66,0,0,1,11,3.2,23.7,23.7,0,0,1,8,8,22.79,22.79,0,0,1,2.23,4.9c.78,0,1.55,0,2.33.05-.15-1.54-.36-3.07-.66-4.61-.15-.78-.32-1.55-.5-2.33a39,39,0,0,0-7.33-15.39,5.4,5.4,0,0,0-.43-.52q.54-.58,1.05-1.2a38.22,38.22,0,0,0,7.42-15.33c.18-.79.36-1.56.52-2.35a54.71,54.71,0,0,0,.91-7.72c1.5-.15,3-.37,4.54-.66l2.28-.51a38.15,38.15,0,0,0,15.16-7.44c.18-.15.35-.29.52-.45a14.84,14.84,0,0,0,1.17,1.07,37.09,37.09,0,0,0,15.1,7.54c.77.18,1.54.36,2.31.52a49.27,49.27,0,0,0,7.6.92c-.06-.62-.11-1.24-.14-1.86a21.71,21.71,0,0,1-7.6-3,22.58,22.58,0,0,1-7.64-8.16,21.58,21.58,0,0,1-2.65-11.18c0-.73.07-1.45.15-2.13q1.15-4.59,6.2-8.68A63.42,63.42,0,0,1,565,473.31c2.72-1.16,5.43-2.21,8.11-3.15s5-1.67,6.8-2.22l1.21-.34c.58-.16,1.15-.34,1.73-.55a32.41,32.41,0,0,0,7.09-3.43,27.69,27.69,0,0,0,8.29-8,21.08,21.08,0,0,0,3.55-11.07A18.89,18.89,0,0,0,601.47,440.74Zm-86.7,69.88c0,.28,0,.58,0,.89q0,.69-.12,1.35a23.47,23.47,0,0,1-4.5.67l-.86,0h-.6c-1.08-.08-2.16-.18-3.21-.32h0a21.52,21.52,0,0,1-9.47-4.12,22.17,22.17,0,0,1-8.71-18.38,24.94,24.94,0,0,1,.37-3.7,22.1,22.1,0,0,1,15.11,2.42,23.77,23.77,0,0,1,7.78,7.12,24.17,24.17,0,0,1,4,10v0c.14,1.1.23,2.21.3,3.34Z"/><path class="cls-1" d="M479.71,598a20,20,0,0,0,1.6,2.43"/></g><ellipse class="cls-1" cx="446.89" cy="627.06" rx="14.3" ry="14.53"/></g><g id="_Radial_Repeat_5" data-name="&lt;Radial Repeat&gt;"><g id="_Radial_Repeat_6" data-name="&lt;Radial Repeat&gt;"><path class="cls-1" d="M482.88,478.77a18.6,18.6,0,0,0-2.41,1.64"/><path class="cls-1" d="M598.68,479.55l-.34-.22.12-.07Z"/></g><ellipse class="cls-1" cx="454.28" cy="445.44" rx="14.3" ry="14.53"/></g><g id="_Radial_Repeat_7" data-name="&lt;Radial Repeat&gt;"><g id="_Radial_Repeat_8" data-name="&lt;Radial Repeat&gt;"><path class="cls-1" d="M649.39,527.94a25.08,25.08,0,0,1-12,3.91,5.29,5.29,0,0,1-1.73,3.87,18.1,18.1,0,0,1-3.53,2.8l-1.73,1c.86.19,1.72.35,2.58.46a19,19,0,0,0,7.61-.6,21.62,21.62,0,0,0,6.78-3.32,27,27,0,0,0,7.59-8.85,33.93,33.93,0,0,0,3.66-11.12,39.07,39.07,0,0,0,0-11.68A35.66,35.66,0,0,0,655.22,494a29.63,29.63,0,0,0-6.67-8.85,21.9,21.9,0,0,0-9.82-5.1,20.88,20.88,0,0,0-3.77-.46,19.85,19.85,0,0,0-10.92,3,25.86,25.86,0,0,0-7.92,7.84,31.32,31.32,0,0,0-3.42,6.88c-.2.57-.39,1.13-.55,1.7l-.34,1.18c-.55,1.81-1.3,4-2.23,6.66s-2,5.27-3.15,7.92a59.45,59.45,0,0,1-7.37,11.37q-4.06,4.83-8.59,5.74c-.68,0-1.38.06-2.1,0a21.67,21.67,0,0,1-11-3.2,23.49,23.49,0,0,1-8-8,22.53,22.53,0,0,1-2.23-4.9,50.19,50.19,0,0,0,11.62-1.42l.13,0a.35.35,0,0,1,.14,0,41.84,41.84,0,0,0,8.92-3.29,33.8,33.8,0,0,0,7.87-5.46,24.08,24.08,0,0,0,4.82-6.44,18.57,18.57,0,0,0,2-7.76v0a17.61,17.61,0,0,0-.34-3.83,20.5,20.5,0,0,0-2.08-5.54,18.59,18.59,0,0,0-1.61-2.43l-.34-.22a20.67,20.67,0,0,0-5.66-2.49,16.72,16.72,0,0,0-3.78-.53h0a17.51,17.51,0,0,0-7.67,1.64,22.24,22.24,0,0,0-6.36,4.47,31.62,31.62,0,0,0-5.43,7.56,40.61,40.61,0,0,0-3.29,8.71.31.31,0,0,1,0,.13.28.28,0,0,1,0,.13,49.45,49.45,0,0,0-1.37,15c0,.62.08,1.24.14,1.86.15,1.54.37,3.07.66,4.61.15.78.32,1.55.5,2.33a39.3,39.3,0,0,0,7.32,15.39c.15.18.29.36.44.52-.37.39-.71.79-1,1.2a38.22,38.22,0,0,0-7.42,15.33c-.19.79-.36,1.56-.52,2.35a53.28,53.28,0,0,0-.91,7.72c.61-.07,1.23-.12,1.84-.15a22.23,22.23,0,0,1,3-7.71,22.5,22.5,0,0,1,8-7.76,21.86,21.86,0,0,1,13.12-2.54c3,.78,5.86,2.87,8.55,6.3a64.71,64.71,0,0,1,7.3,12q1.73,4.14,3.1,8.24T611,580.5c.11.4.22.81.34,1.22.15.59.33,1.17.54,1.77a33.61,33.61,0,0,0,3.37,7.19,28.15,28.15,0,0,0,7.86,8.42,20.29,20.29,0,0,0,10.9,3.6,18.26,18.26,0,0,0,3.77-.27,20.37,20.37,0,0,0,9.86-4.69,28,28,0,0,0,6.72-8.69,35.31,35.31,0,0,0,3.42-10.42,40.58,40.58,0,0,0,.11-11.91,36.45,36.45,0,0,0-3.59-11.55,29.18,29.18,0,0,0-7.54-9.41A22.41,22.41,0,0,0,640,542a18.8,18.8,0,0,0-7.61-1,25,25,0,0,0-2.58.34c.65.39,1.23.76,1.72,1.09a18.73,18.73,0,0,1,3.52,3,5.68,5.68,0,0,1,1.7,4,25.8,25.8,0,0,1,12,4.61,19.83,19.83,0,0,1,7.15,9.18,38.84,38.84,0,0,1,1,6.76,16.84,16.84,0,0,1-3.48,9.14,20.88,20.88,0,0,1-8.14,6.31A25.21,25.21,0,0,1,634,587.66a28.89,28.89,0,0,1-4.72-.52,15.89,15.89,0,0,1-7.23-4.66,33.77,33.77,0,0,1-5.24-7.76,60.51,60.51,0,0,1-3.49-8.54q-1.33-4.17-2-7c-.18-1-.39-2.06-.63-3.07s-.43-1.7-.68-2.51a43.14,43.14,0,0,0-3.67-8.68,31.66,31.66,0,0,0-3.38-4.88,28.05,28.05,0,0,0,4-5.24,39.75,39.75,0,0,0,3.73-8.32c.25-.78.48-1.59.69-2.42.25-1,.47-2,.65-3q.64-2.72,2-6.74a54.57,54.57,0,0,1,3.55-8.19,30.9,30.9,0,0,1,5.28-7.34,15,15,0,0,1,7.26-4.19,28.07,28.07,0,0,1,4.72-.27A26.06,26.06,0,0,1,646.1,497a22.11,22.11,0,0,1,8.11,6.6,17,17,0,0,1,3.42,9.12,36.54,36.54,0,0,1-1,6.57A18.3,18.3,0,0,1,649.39,527.94Zm-83.33-18.3c0-.31,0-.59,0-.87v-.61c.08-1.1.18-2.19.32-3.26v0a22.14,22.14,0,0,1,11.88-16.21,21.06,21.06,0,0,1,10.27-2.25,23,23,0,0,1,3.65.38,22.77,22.77,0,0,1,.4,4.92,22.18,22.18,0,0,1-2.78,10.41,23.64,23.64,0,0,1-7,7.91,23.31,23.31,0,0,1-9.87,4.06h0c-1.09.13-2.18.23-3.29.3h-.61l-.88,0q-.67,0-1.32-.12A24.31,24.31,0,0,1,566.06,509.64Z"/><path class="cls-1" d="M599.81,599.37l-.28.22c.08-.11.14-.23.22-.34Z"/></g><ellipse class="cls-1" cx="633.11" cy="452.94" rx="14.3" ry="14.53"/></g></svg>