<svg id="Layer_1" data-name="Layer 1" xmlns="http://www.w3.org/2000/svg" viewBox="0 0 1080 1080"><defs><style>.cls-1{fill:#262938;}.cls-2{fill:#edeae4;}</style></defs><rect class="cls-1" y="-20" width="1080" height="1100"/><g id="_Radial_Repeat_" data-name="&lt;Radial Repeat&gt;"><g id="_Radial_Repeat_2" data-name="&lt;Radial Repeat&gt;"><path class="cls-2" d="M147.93,602.42l-.13.07-.24-.3A2.85,2.85,0,0,0,147.93,602.42Z"/><path class="cls-2" d="M273.79,583.07a23.36,23.36,0,0,0-4.65-6.66,32.68,32.68,0,0,0-7.84-5.67,42.51,42.51,0,0,0-9-3.44.31.31,0,0,1-.13,0,.37.37,0,0,1-.14,0,51.5,51.5,0,0,0-15.52-1.44l-1.94.15c-1.58.16-3.18.39-4.77.69-.8.16-1.61.34-2.41.53a40.28,40.28,0,0,0-16,7.65c-.19.15-.38.29-.55.45-.4-.38-.81-.74-1.23-1.09a39.6,39.6,0,0,0-15.92-7.76l-2.43-.54a53.34,53.34,0,0,0-8-.94c-.83,0-1.65-.06-2.47-.06a54,54,0,0,0-12.25,1.46.33.33,0,0,1-.14,0,.33.33,0,0,1-.15,0,45.26,45.26,0,0,0-9.39,3.38,35.73,35.73,0,0,0-8.3,5.63,24.93,24.93,0,0,0-5.08,6.62,18.87,18.87,0,0,0-2.14,8v0a17,17,0,0,0,.36,4,20,20,0,0,0,2.19,5.69h0a19.51,19.51,0,0,0,1.68,2.5,2.85,2.85,0,0,0,.37.23,21.76,21.76,0,0,0,6,2.56,17.82,17.82,0,0,0,4,.54h0a18.62,18.62,0,0,0,8.06-1.68,23.16,23.16,0,0,0,6.71-4.6,32.21,32.21,0,0,0,5.72-7.78,41.13,41.13,0,0,0,3.47-9,.31.31,0,0,1,0-.13.33.33,0,0,1,0-.14,50,50,0,0,0,1.46-15.39,23.42,23.42,0,0,1,16,11.5,21.67,21.67,0,0,1,2.8,11.5,22,22,0,0,1-.17,2.2q-1.2,4.73-6.53,8.93a66.33,66.33,0,0,1-12.43,7.64c-2.87,1.2-5.73,2.28-8.56,3.24s-5.21,1.72-7.16,2.28c-.43.12-.85.23-1.27.36-.61.16-1.22.35-1.83.55a34.65,34.65,0,0,0-7.46,3.54,28.84,28.84,0,0,0-8.74,8.21,21.33,21.33,0,0,0-3.74,11.39,19.26,19.26,0,0,0,.28,3.94,21.41,21.41,0,0,0,4.87,10.3,29.21,29.21,0,0,0,9,7A37,37,0,0,0,169.32,663a41.65,41.65,0,0,0,12.37.1,37.21,37.21,0,0,0,12-3.75,30.14,30.14,0,0,0,9.77-7.87,23.63,23.63,0,0,0,3.88-7,19.82,19.82,0,0,0,1.05-8c-.07-.9-.19-1.8-.35-2.7-.42.7-.79,1.29-1.14,1.81a19.76,19.76,0,0,1-3.14,3.67,5.91,5.91,0,0,1-4.19,1.78,27.1,27.1,0,0,1-4.79,12.52,20.71,20.71,0,0,1-9.51,7.47,40.08,40.08,0,0,1-7,1.05,17.4,17.4,0,0,1-9.48-3.65,21.83,21.83,0,0,1-6.56-8.5A26.35,26.35,0,0,1,160,638.26a28.19,28.19,0,0,1,.54-4.93,16.55,16.55,0,0,1,4.83-7.55,35.2,35.2,0,0,1,8-5.48,63.52,63.52,0,0,1,8.87-3.65c2.89-.93,5.3-1.62,7.25-2.06,1.07-.18,2.13-.4,3.19-.66.89-.21,1.76-.44,2.6-.71a43.46,43.46,0,0,0,9-3.84,31.12,31.12,0,0,0,5.06-3.52,28.83,28.83,0,0,0,5.44,4.2,41,41,0,0,0,8.63,3.9c.82.26,1.65.5,2.52.72s2.05.48,3.09.68q2.83.67,7,2.1a57.23,57.23,0,0,1,8.5,3.7,32.32,32.32,0,0,1,7.61,5.53,15.59,15.59,0,0,1,4.34,7.58,28.42,28.42,0,0,1,.29,4.93A27.53,27.53,0,0,1,254,650.86a23,23,0,0,1-6.85,8.47,17.49,17.49,0,0,1-9.47,3.57,36.13,36.13,0,0,1-6.82-1.08,19,19,0,0,1-8.94-7.52,26.33,26.33,0,0,1-4.07-12.55,5.43,5.43,0,0,1-4-1.81,18.87,18.87,0,0,1-2.9-3.69c-.31-.52-.64-1.12-1-1.81q-.3,1.35-.48,2.7a20.4,20.4,0,0,0,.63,8,22.4,22.4,0,0,0,3.45,7.08,28,28,0,0,0,9.17,7.93,35,35,0,0,0,11.54,3.82,40.35,40.35,0,0,0,12.12,0,37.52,37.52,0,0,0,10.77-3.51,30.6,30.6,0,0,0,9.18-7,22.81,22.81,0,0,0,5.29-10.26,22,22,0,0,0,.48-3.94,21,21,0,0,0-3.1-11.41,26.87,26.87,0,0,0-8.14-8.27A31.72,31.72,0,0,0,253.7,616c-.6-.22-1.18-.41-1.77-.58l-1.22-.36q-2.84-.85-6.91-2.33c-2.73-1-5.46-2.07-8.22-3.29a61.85,61.85,0,0,1-11.8-7.7q-5-4.26-5.95-9c-.05-.71-.07-1.45-.05-2.2a22.89,22.89,0,0,1,3.33-11.48,24.47,24.47,0,0,1,8.3-8.35,23.52,23.52,0,0,1,5.08-2.32A52.48,52.48,0,0,0,236,580.53a.43.43,0,0,1,0,.14.35.35,0,0,1,0,.14,44.21,44.21,0,0,0,3.41,9.32,35.09,35.09,0,0,0,5.67,8.23,24.66,24.66,0,0,0,6.68,5,19,19,0,0,0,8,2.13h0a18.42,18.42,0,0,0,4-.35,20.23,20.23,0,0,0,8.27-3.86l.23-.35a21.93,21.93,0,0,0,2.58-5.92,18.15,18.15,0,0,0,.54-3.94v0A18.36,18.36,0,0,0,273.79,583.07ZM182,572.76c-.08,1.13-.19,2.24-.33,3.35v0a22.67,22.67,0,0,1-4.27,9.9,23.18,23.18,0,0,1-8.25,6.79,22.86,22.86,0,0,1-10.82,2.31,24.26,24.26,0,0,1-3.84-.39,22.9,22.9,0,0,1-.43-5.07A22.54,22.54,0,0,1,157,579a24.85,24.85,0,0,1,17.82-12.31h0c1.15-.14,2.3-.24,3.47-.31h.64l.93,0c.47,0,.93.07,1.4.12a25.71,25.71,0,0,1,.69,4.71c0,.32,0,.62,0,.9Zm82.66,21.73a24,24,0,0,1-5.12.42,23,23,0,0,1-10.8-2.91,24.76,24.76,0,0,1-8.2-7.33,24.48,24.48,0,0,1-4.21-10.33v0c-.14-1.13-.24-2.28-.31-3.43,0-.14,0-.35,0-.64s0-.6,0-.92.07-.93.12-1.39a26,26,0,0,1,4.75-.69l.91,0h.63c1.14.08,2.27.19,3.38.33h0a23.07,23.07,0,0,1,10,4.25,22.76,22.76,0,0,1,6.84,8.17A22,22,0,0,1,265,590.68,26.44,26.44,0,0,1,264.63,594.49Z"/><path class="cls-2" d="M269.6,603a21,21,0,0,0,2.53-1.69"/></g><ellipse class="cls-2" cx="299.73" cy="637.29" rx="15.07" ry="14.95"/></g><g id="_Radial_Repeat_3" data-name="&lt;Radial Repeat&gt;"><g id="_Radial_Repeat_4" data-name="&lt;Radial Repeat&gt;"><path class="cls-2" d="M146.67,478.69c-.07.11-.14.23-.22.34l-.07-.12Z"/><path class="cls-2" d="M274.18,437.87a21.51,21.51,0,0,0-4.87-10.29,29,29,0,0,0-9-7,36.89,36.89,0,0,0-10.8-3.58,41.65,41.65,0,0,0-12.37-.1,37.21,37.21,0,0,0-12,3.75,30,30,0,0,0-9.77,7.86,23.71,23.71,0,0,0-3.89,7.06,20,20,0,0,0-1,8,27.11,27.11,0,0,0,.35,2.69c.41-.69.79-1.28,1.13-1.8a20.61,20.61,0,0,1,3.15-3.68,5.88,5.88,0,0,1,4.19-1.77,27,27,0,0,1,4.78-12.52,20.72,20.72,0,0,1,9.52-7.47,40.08,40.08,0,0,1,7-1,17.4,17.4,0,0,1,9.48,3.65,21.83,21.83,0,0,1,6.56,8.5,26.35,26.35,0,0,1,2.22,11.68,30.24,30.24,0,0,1-.54,4.93,16.63,16.63,0,0,1-4.83,7.55,35,35,0,0,1-8,5.48,63.42,63.42,0,0,1-8.86,3.65c-2.89.92-5.3,1.62-7.25,2-1.08.19-2.14.41-3.2.67-.89.21-1.76.44-2.6.71a43.38,43.38,0,0,0-9,3.84,31.12,31.12,0,0,0-5.06,3.52,28.58,28.58,0,0,0-5.45-4.2,41,41,0,0,0-8.62-3.9c-.81-.26-1.66-.5-2.52-.72-1-.26-2.05-.48-3.09-.68q-2.84-.67-7-2.1a57.23,57.23,0,0,1-8.5-3.7,32.32,32.32,0,0,1-7.61-5.53,15.69,15.69,0,0,1-4.35-7.58,29.51,29.51,0,0,1-.28-4.94,27.67,27.67,0,0,1,2.76-11.65,23.1,23.1,0,0,1,6.86-8.47,17.59,17.59,0,0,1,9.47-3.58,36.61,36.61,0,0,1,6.81,1.09,19,19,0,0,1,8.95,7.52A26.17,26.17,0,0,1,201,438.25a5.44,5.44,0,0,1,4,1.81,18.87,18.87,0,0,1,2.9,3.69c.3.52.64,1.12,1,1.81.2-.9.37-1.8.48-2.7a20,20,0,0,0-.62-8,22.4,22.4,0,0,0-3.45-7.08,28.08,28.08,0,0,0-9.17-7.93,35,35,0,0,0-11.54-3.82,40.35,40.35,0,0,0-12.12,0,37.42,37.42,0,0,0-10.77,3.51,30.48,30.48,0,0,0-9.18,7,22.62,22.62,0,0,0-5.29,10.26,21.1,21.1,0,0,0-.48,3.94,20.87,20.87,0,0,0,3.1,11.41,26.87,26.87,0,0,0,8.14,8.27,31.79,31.79,0,0,0,7.14,3.57c.58.22,1.17.41,1.75.58l1.23.36q2.82.86,6.9,2.33c2.73,1,5.47,2.07,8.23,3.29a62.16,62.16,0,0,1,11.8,7.7q5,4.26,5.95,9c0,.71.06,1.45,0,2.2a22.88,22.88,0,0,1-3.32,11.48,24.44,24.44,0,0,1-8.3,8.34,23.09,23.09,0,0,1-5.08,2.33,53,53,0,0,0-1.47-12.14.39.39,0,0,1,0-.14.3.3,0,0,1,0-.14,43.63,43.63,0,0,0-3.4-9.32,35.48,35.48,0,0,0-5.67-8.23,24.82,24.82,0,0,0-6.68-5,19,19,0,0,0-8.05-2.13h0a17.62,17.62,0,0,0-4,.35,20.67,20.67,0,0,0-5.74,2.18,18.39,18.39,0,0,0-2.55,1.68c-.07.11-.14.23-.22.34a22,22,0,0,0-2.58,5.93,17.55,17.55,0,0,0-.54,3.94v0a18.23,18.23,0,0,0,1.7,8,23,23,0,0,0,4.64,6.65,32.45,32.45,0,0,0,7.84,5.68,42.51,42.51,0,0,0,9,3.44.31.31,0,0,1,.13,0,.37.37,0,0,1,.14,0,51.43,51.43,0,0,0,15.51,1.44,22.64,22.64,0,0,1-3.14,7.93,23.27,23.27,0,0,1-8.45,8,22.05,22.05,0,0,1-11.6,2.77,20,20,0,0,1-2.22-.16c-3.17-.79-6.18-3-9-6.47a66.3,66.3,0,0,1-7.71-12.34c-1.2-2.84-2.29-5.68-3.26-8.48s-1.74-5.18-2.31-7.11c-.11-.41-.23-.83-.35-1.25-.17-.61-.35-1.22-.57-1.82a33.8,33.8,0,0,0-3.56-7.4,29,29,0,0,0-8.28-8.66,21.67,21.67,0,0,0-11.49-3.71,20.35,20.35,0,0,0-4,.28A21.71,21.71,0,0,0,96,480.6,29.14,29.14,0,0,0,89,489.54a36,36,0,0,0-3.6,10.71,40.59,40.59,0,0,0-.11,12.26A36.75,36.75,0,0,0,89,524.39,30.31,30.31,0,0,0,97,534.08a24,24,0,0,0,7.12,3.85,20.39,20.39,0,0,0,8,1c.92-.07,1.82-.19,2.73-.35-.7-.41-1.3-.78-1.82-1.12a20.49,20.49,0,0,1-3.71-3.12,5.84,5.84,0,0,1-1.79-4.16,27.4,27.4,0,0,1-12.62-4.74A20.55,20.55,0,0,1,87.34,516a39.31,39.31,0,0,1-1-6.95A17,17,0,0,1,90,499.67a22.09,22.09,0,0,1,8.58-6.5,27,27,0,0,1,11.77-2.2,29.78,29.78,0,0,1,5,.53,16.92,16.92,0,0,1,7.62,4.79,34.62,34.62,0,0,1,5.51,8,61.89,61.89,0,0,1,3.69,8.79c.93,2.87,1.63,5.26,2.07,7.19.19,1.07.41,2.12.67,3.17.21.89.44,1.74.71,2.58a43.21,43.21,0,0,0,3.88,8.93,30.88,30.88,0,0,0,3.55,5,29.42,29.42,0,0,0-4.24,5.4,41.36,41.36,0,0,0-3.93,8.56q-.39,1.22-.72,2.49c-.27,1-.5,2-.69,3.07q-.69,2.81-2.11,6.94a57.48,57.48,0,0,1-3.74,8.43,32.07,32.07,0,0,1-5.58,7.55,15.84,15.84,0,0,1-7.63,4.31,31.25,31.25,0,0,1-5,.28,28.09,28.09,0,0,1-11.76-2.75,23.33,23.33,0,0,1-8.55-6.79,17.23,17.23,0,0,1-3.6-9.39,37.06,37.06,0,0,1,1.09-6.76,19,19,0,0,1,7.59-8.87,26.76,26.76,0,0,1,12.65-4,5.43,5.43,0,0,1,1.83-4,18.87,18.87,0,0,1,3.72-2.88c.52-.3,1.13-.63,1.83-1-.92-.2-1.82-.36-2.73-.48a20.52,20.52,0,0,0-8,.62,22.63,22.63,0,0,0-7.14,3.42,27.75,27.75,0,0,0-8,9.09,34.24,34.24,0,0,0-3.86,11.45,39.38,39.38,0,0,0,0,12A36.46,36.46,0,0,0,88,587.32a30.55,30.55,0,0,0,7,9.1,23.2,23.2,0,0,0,10.36,5.25,22.07,22.07,0,0,0,4,.47,21.35,21.35,0,0,0,11.51-3.08,26.91,26.91,0,0,0,8.33-8.06,31.53,31.53,0,0,0,3.61-7.08c.21-.59.41-1.16.57-1.75.13-.4.25-.81.37-1.21q.87-2.81,2.35-6.85c1-2.71,2.1-5.42,3.32-8.15a61.11,61.11,0,0,1,7.76-11.7q4.29-5,9.05-5.91c.72,0,1.46-.06,2.23,0A23.42,23.42,0,0,1,170,551.6a24.66,24.66,0,0,1,8.41,8.24,23.25,23.25,0,0,1,2.35,5c.82,0,1.64,0,2.47.06-.16-1.58-.39-3.16-.7-4.75-.16-.8-.34-1.59-.53-2.39A40,40,0,0,0,174.3,542c-.15-.18-.3-.36-.46-.53.39-.41.75-.81,1.11-1.23a39,39,0,0,0,7.82-15.78c.19-.81.37-1.61.54-2.41a53.77,53.77,0,0,0,1-7.94c1.59-.16,3.18-.39,4.78-.69.81-.16,1.61-.34,2.41-.53a40.35,40.35,0,0,0,16-7.65c.19-.15.37-.29.55-.45.4.38.81.74,1.24,1.09a39.52,39.52,0,0,0,15.9,7.76l2.44.54a53.17,53.17,0,0,0,8,.94c-.06-.64-.12-1.27-.15-1.91a23.06,23.06,0,0,1-8-3.11,23.48,23.48,0,0,1-8.06-8.39,22.82,22.82,0,0,1-2.63-13.7q1.2-4.72,6.53-8.93a66.75,66.75,0,0,1,12.44-7.64c2.87-1.2,5.73-2.28,8.55-3.24s5.23-1.72,7.17-2.28l1.27-.36c.61-.16,1.22-.35,1.83-.56a34.59,34.59,0,0,0,7.46-3.53,29.08,29.08,0,0,0,8.74-8.21,21.33,21.33,0,0,0,3.74-11.39A20.09,20.09,0,0,0,274.18,437.87Zm-91.36,71.9c0,.29,0,.6,0,.92,0,.47-.06.93-.12,1.39a26,26,0,0,1-4.74.69l-.91,0h-.63c-1.14-.08-2.27-.19-3.38-.33h0a23.07,23.07,0,0,1-16.83-12.42,22.14,22.14,0,0,1-2.33-10.73,23.88,23.88,0,0,1,.39-3.81,23.26,23.26,0,0,1,5.11-.42A23,23,0,0,1,170.1,488a24.66,24.66,0,0,1,12.41,17.66v0c.14,1.14.24,2.29.31,3.44Z"/><path class="cls-2" d="M145.88,599.69a19.51,19.51,0,0,0,1.68,2.5"/></g><ellipse class="cls-2" cx="111.29" cy="629.57" rx="15.07" ry="14.95"/></g><g id="_Radial_Repeat_5" data-name="&lt;Radial Repeat&gt;"><g id="_Radial_Repeat_6" data-name="&lt;Radial Repeat&gt;"><path class="cls-2" d="M149.22,477a18.39,18.39,0,0,0-2.55,1.68"/><path class="cls-2" d="M271.24,477.8l-.36-.22.12-.07Z"/></g><ellipse class="cls-2" cx="119.08" cy="442.71" rx="15.07" ry="14.95"/></g><g id="_Radial_Repeat_7" data-name="&lt;Radial Repeat&gt;"><g id="_Radial_Repeat_8" data-name="&lt;Radial Repeat&gt;"><path class="cls-2" d="M324.66,527.59a26.83,26.83,0,0,1-12.65,4,5.38,5.38,0,0,1-1.82,4,19.16,19.16,0,0,1-3.72,2.88l-1.82,1c.9.2,1.81.36,2.71.48a20.57,20.57,0,0,0,8-.62,22.85,22.85,0,0,0,7.14-3.42,28,28,0,0,0,8-9.1,34.32,34.32,0,0,0,3.85-11.44,39.06,39.06,0,0,0,0-12,36.14,36.14,0,0,0-3.53-10.68,30.58,30.58,0,0,0-7-9.1,23.17,23.17,0,0,0-10.35-5.25,22.18,22.18,0,0,0-4-.47A21.35,21.35,0,0,0,298,480.94a26.83,26.83,0,0,0-8.34,8.06,31.49,31.49,0,0,0-3.6,7.08c-.21.58-.41,1.16-.58,1.75l-.36,1.21c-.58,1.87-1.37,4.15-2.35,6.85s-2.09,5.42-3.32,8.15a60.67,60.67,0,0,1-7.77,11.7q-4.28,5-9.05,5.91c-.72,0-1.45.06-2.21,0a23.3,23.3,0,0,1-11.58-3.3,24.37,24.37,0,0,1-8.41-8.23,22.87,22.87,0,0,1-2.35-5,54.51,54.51,0,0,0,12.25-1.45.37.37,0,0,1,.14,0,.35.35,0,0,1,.14,0,45.34,45.34,0,0,0,9.4-3.38,35.94,35.94,0,0,0,8.3-5.63,24.89,24.89,0,0,0,5.07-6.62,18.6,18.6,0,0,0,2.15-8v0a17.5,17.5,0,0,0-.36-3.95,20.61,20.61,0,0,0-2.19-5.69,20,20,0,0,0-1.69-2.51l-.36-.22a21.89,21.89,0,0,0-6-2.56,17.34,17.34,0,0,0-4-.54h0a18.66,18.66,0,0,0-8.07,1.68,23.25,23.25,0,0,0-6.7,4.6,32.52,32.52,0,0,0-5.73,7.78,40.9,40.9,0,0,0-3.46,9,.33.33,0,0,1,0,.13.23.23,0,0,1,0,.14,50,50,0,0,0-1.44,15.39c0,.64.09,1.27.15,1.91.15,1.58.38,3.16.69,4.75.16.8.34,1.59.53,2.39a40,40,0,0,0,7.72,15.84c.15.18.29.36.46.53-.39.41-.75.81-1.11,1.23A39,39,0,0,0,236,555.59c-.2.81-.38,1.61-.55,2.41a55.14,55.14,0,0,0-1,7.94l1.94-.15a22.84,22.84,0,0,1,3.14-7.93,23.38,23.38,0,0,1,8.46-8,22.05,22.05,0,0,1,11.6-2.77,20,20,0,0,1,2.22.16q4.75,1.18,9,6.47a65.76,65.76,0,0,1,7.7,12.34q1.82,4.26,3.27,8.48c1,2.8,1.74,5.18,2.3,7.11l.36,1.25c.16.61.35,1.21.57,1.82a34.22,34.22,0,0,0,3.55,7.4,29,29,0,0,0,8.29,8.66,21.73,21.73,0,0,0,11.48,3.71,20.34,20.34,0,0,0,4-.28,21.67,21.67,0,0,0,10.38-4.83,29,29,0,0,0,7.09-8.94,36,36,0,0,0,3.59-10.71,40.59,40.59,0,0,0,.12-12.26,36.77,36.77,0,0,0-3.79-11.88,30.15,30.15,0,0,0-7.93-9.69,24,24,0,0,0-7.12-3.85,20.44,20.44,0,0,0-8-1,25.29,25.29,0,0,0-2.72.35c.69.41,1.3.78,1.82,1.12a20.11,20.11,0,0,1,3.7,3.12,5.72,5.72,0,0,1,1.79,4.16,27.39,27.39,0,0,1,12.63,4.74,20.47,20.47,0,0,1,7.53,9.44,39.33,39.33,0,0,1,1.06,6.95,17.16,17.16,0,0,1-3.67,9.41,22.26,22.26,0,0,1-8.58,6.5A27,27,0,0,1,308.5,589a29.67,29.67,0,0,1-5-.53,16.87,16.87,0,0,1-7.62-4.79,35,35,0,0,1-5.52-8,61.8,61.8,0,0,1-3.68-8.79c-.94-2.87-1.63-5.26-2.08-7.19-.19-1.07-.4-2.12-.66-3.17-.21-.89-.45-1.74-.71-2.58a44,44,0,0,0-3.87-8.93,31.56,31.56,0,0,0-3.56-5,29,29,0,0,0,4.23-5.4A39.85,39.85,0,0,0,284,526.1c.27-.81.51-1.64.73-2.49.26-1,.49-2,.68-3.07q.69-2.81,2.12-6.94a56.44,56.44,0,0,1,3.74-8.43,32,32,0,0,1,5.57-7.55,15.86,15.86,0,0,1,7.65-4.31,31.12,31.12,0,0,1,5-.28,28.09,28.09,0,0,1,11.76,2.75,23.19,23.19,0,0,1,8.54,6.79,17.32,17.32,0,0,1,3.61,9.39,36.24,36.24,0,0,1-1.1,6.76A18.89,18.89,0,0,1,324.66,527.59Zm-87.8-18.82c0-.33,0-.62,0-.9v-.63c.08-1.13.19-2.25.34-3.35v0a22.46,22.46,0,0,1,4.28-9.9,22.92,22.92,0,0,1,19.05-9.1,27.14,27.14,0,0,1,3.86.39,22.86,22.86,0,0,1,.41,5.06A22.43,22.43,0,0,1,261.85,501a24.55,24.55,0,0,1-7.41,8.13,24.85,24.85,0,0,1-10.4,4.18h0c-1.14.14-2.29.24-3.46.31h-.65l-.92,0c-.47,0-.94-.07-1.4-.12A25.71,25.71,0,0,1,236.86,508.77Z"/><path class="cls-2" d="M272.43,601.08l-.3.23.23-.35Z"/></g><ellipse class="cls-2" cx="307.51" cy="450.43" rx="15.07" ry="14.95"/></g><path class="cls-2" d="M373.22,445.29l5.21,5,5.21-5,5.11,5v1.38l-5.11,5-5.21-5-5.21,5-5.1-5v-1.38Z"/><path class="cls-2" d="M393.31,494.13l-.11-.63L390.7,499c-7.38.64-12.81,1-22-.64L366.27,490c5.75-6.49,14.55-13.09,23.56-18.62l-.65-4.26,3.37-5.85,1.19.43,2.5,23.83c1,9.37,5,10.33,11.29,10.33,1.41,0,2.17.85,2.17,2.44v6.81a1.93,1.93,0,0,1-2.17,2.13C398.74,507.22,394.72,503.6,393.31,494.13Zm-11.51-4.25a36.4,36.4,0,0,0,10.64-1.49l-2.28-15a138,138,0,0,0-19.76,15.54A60.73,60.73,0,0,0,381.8,489.88Z"/><path class="cls-2" d="M405.36,504.88v-6.6c0-1.59.76-2.44,2.17-2.44h23.89c1.41,0,2.17.85,2.17,2.44v6.6c0,1.6-.76,2.34-2.17,2.34H407.53C406.12,507.22,405.36,506.48,405.36,504.88Z"/><path class="cls-2" d="M429.24,504.88v-6.6c0-1.59.76-2.44,2.18-2.44H455.3c1.42,0,2.18.85,2.18,2.44v6.6c0,1.6-.76,2.34-2.18,2.34H431.42C430,507.22,429.24,506.48,429.24,504.88Z"/><path class="cls-2" d="M453.13,504.88v-6.6c0-1.59.76-2.44,2.17-2.44h23.89c1.41,0,2.17.85,2.17,2.44v6.6c0,1.6-.76,2.34-2.17,2.34H455.3C453.89,507.22,453.13,506.48,453.13,504.88Z"/><path class="cls-2" d="M498.19,499c-2.6,6.17-8.79,8.19-19,8.19-1.41,0-2.17-.42-2.17-1.59v-8c0-1.18.65-1.81,2.17-1.81,3.15,0,12.81,0,17.15-1.92l1.2-8.83,1.85-3,.76.11c1.3,11.49,4.45,13.62,10.2,13.62,16.18-20.65,24.33-26,32.58-26,9.23,0,18.67,8.2,22,18l-4.23,13.72c-7.17,3.19-17.7,5.64-39.53,5.64C510,507.22,502.75,505.09,498.19,499Zm31.71-3.19c11.62,0,25.62-2.13,32.14-4.47-5-8.41-14-12.56-20.2-12.56-8.9,0-19,6-29.1,17Z"/><path class="cls-2" d="M578.75,493.18l-2.39-47.68,4.67-7.13,1.2.43v54.48a30.32,30.32,0,0,0,13,2.56c1.41,0,2.06.85,2.06,2.23v7c0,1.39-.54,2.13-2.17,2.13C585.27,507.22,579.19,501.58,578.75,493.18Z"/><path class="cls-2" d="M628.7,450.72l5.32,5.21v1.28l-5.32,5.21-5.32-5.21v-1.39Z"/><path class="cls-2" d="M645.21,490c-14.88,6.6-25.09,17.24-50.06,17.24a1.93,1.93,0,0,1-2.17-2.13V498c0-1.49.65-2.12,2.17-2.12,16.07,0,28.34-5,39.31-8.94a74.57,74.57,0,0,1-7.28-2.34l-22-8.2-3.48,7.45h-.76l-.43-.64,6.41-14,1.3-.64,26.6,9.58c10.86,3.93,20,4.89,27.47-.32l.55.53-3.26,5.42c-2,3.41-5.76,5-10.75,5.22,2.82,3.94,9.77,6.92,20.09,6.92,1.52,0,2.06.85,2.06,2.23v7c0,1.39-.54,2.13-2.17,2.13C654.87,507.22,646.94,500.09,645.21,490Z"/><path class="cls-2" d="M666.59,505.09v-7c0-1.38.65-2.23,2.06-2.23,5.65,0,12.38-.64,16.83-2.13l-3-47.89,4.24-6.81,1.3.32,2.93,18.2L689,458.8l-.22,35.76-5.21,10.85a53.38,53.38,0,0,1-14.77,1.81C667.13,507.22,666.59,506.48,666.59,505.09Z"/><path class="cls-2" d="M707.31,507.22l-3.26-61.4L708.4,439l1.19.32,2.82,18.41-1.95,1.17-.33,37.78-2.28,10.53Z"/><path class="cls-2" d="M756.49,540.21l5.22,5,5.21-5,5.1,5v1.38l-5.1,5-5.21-5-5.22,5-5.1-5v-1.38Z"/><path class="cls-2" d="M779.51,448.91l5.21,5,5.22-5,5.1,5v1.38l-5.1,5-5.22-5-5.21,5-5.1-5v-1.38Z"/><path class="cls-2" d="M789.07,490.73,783,475.83l3.91-7.56,1.08.43c1.63,7.77,3.15,14.58,3.48,21l-4,10a28.4,28.4,0,0,1-7.38,3.19l7.71,2.13c7.38,2.34,8.9,6.59,5.64,14.15-6.84,7-20.08,12.66-33.11,12.66-16.18,0-27.8-7.34-27.8-23.41,0-7.45,4-14.36,7.92-18.19l.66.42c-3.59,5.22-5.54,10.32-5.54,15.32,0,10.11,10.86,15.43,24.76,15.43A52.66,52.66,0,0,0,791,511.27l-24.33-6.81v-2.35l3.48-5.32C775.06,496.37,783.86,494.45,789.07,490.73Z"/><path class="cls-2" d="M809.15,493.18l-2.39-47.68,4.67-7.13,1.2.43v54.48a30.29,30.29,0,0,0,13,2.56c1.41,0,2.06.85,2.06,2.23v7c0,1.39-.54,2.13-2.17,2.13C815.67,507.22,809.59,501.58,809.15,493.18Z"/><path class="cls-2" d="M841,437.1l5.21,5,5.21-5,5.1,5v1.38l-5.1,5-5.21-5-5.21,5-5.11-5V442.1Z"/><path class="cls-2" d="M823.38,505.31v-7.56c0-1.17.65-1.91,2.17-1.91h10c7.38,0,20.52-.75,27.9-2.45A40.21,40.21,0,0,0,861,482.85c-7.39,4.37-17.38,4.79-27.26,2.13l-2.49-7.23c3-12.77,8.14-21.07,15-21.07,9.66,0,18.35,15.85,20,35.64l-4.45,12.35c-9.56,2.13-26.28,2.55-36.16,2.55C824.14,507.22,823.38,506.58,823.38,505.31Zm35.61-27c-3.8-7.66-9.23-13.41-14.11-13.41-3.59,0-8.69,3.51-11.73,12.34A75.39,75.39,0,0,0,859,478.28Z"/><path class="cls-2" d="M881,493.18l-2.39-47.68,4.67-7.13,1.2.43v54.48a30.29,30.29,0,0,0,13,2.56c1.41,0,2.06.85,2.06,2.23v7c0,1.39-.54,2.13-2.17,2.13C887.55,507.22,881.47,501.58,881,493.18Z"/><path class="cls-2" d="M954.22,503.6c-7.5,2.13-17.92,3.62-30.3,3.62H897.43c-1.52,0-2.18-.74-2.18-2.13v-7.34c0-1.28.76-1.91,2.18-1.91h12.05l-2.39-50.34,4.23-6.81,1.2.43,2.82,18.3-1.84,1.17L913.39,492l.54.32c7.71-10.64,20.41-22.13,28.78-22.13,10.2,0,17.91,7.45,21.93,17.67l-2.39,7.66c4.13.21,7.71.32,9.12.32s2.06.85,2.06,2.23v7c0,1.39-.54,2.13-2.17,2.13A47.08,47.08,0,0,1,954.22,503.6Zm7.49-12.45A23.58,23.58,0,0,0,942,479.34c-7.71,0-19.22,6.17-29.11,16.5h18C941.84,495.84,954,494.24,961.71,491.15Z"/><path class="cls-2" d="M986.13,517.65l5.32,5.11v1.38l-5.32,5.22-5.32-5.22v-1.38Z"/><path class="cls-2" d="M969.09,505.31v-7.45c0-1.39.65-2,2.17-2,8.36,0,16.5-.86,22.47-3l-7.05-15.22,4.77-6.81,1.09.53A121.56,121.56,0,0,1,996,492.11l-4.35,12.13c-5.75,2.34-12.49,3-20.41,3C969.74,507.22,969.09,506.69,969.09,505.31Z"/><path class="cls-2" d="M365.49,601.58l2.31.67c-2.79,14.5,3.26,23,17.85,23,14.4,0,20.06-8.25,20.06-16.7,0-5.57-2.4-9.5-15.16-12.67l-13.35-3.27c-12.48-3.07-17-8.25-17-15.74,0-11.61,11-17.85,26.3-17.85,10.37,0,17.57,2.88,24.58,6.43l-5.57,16.22-2.3-.67c1.44-11.71-1.92-18.62-16.71-18.62-12.47,0-19.67,5-19.67,12.76,0,5.76,3.84,7.59,14.68,10.18l12,2.88c14.88,3.55,18.91,11.23,18.91,18.81,0,11-8.64,21.6-26.59,21.6-10,0-18.81-3.26-27.16-8.54Z"/><path class="cls-2" d="M416.47,649.19v-3.36c4.22-.28,8.16-1.63,8.16-4.12V584.78c0-2-3-2.21-8.16-2.21v-3.36l15.36-2.87v9.4l8.93-7.58a24.14,24.14,0,0,1,9.59-1.82c12.48,0,21.31,9.21,21.31,25.82,0,17.08-9.4,26.49-22.55,26.49-8.55,0-13.63-3.93-17.28-7.87v20.93c0,2.49,3.93,3.84,8.16,4.12v3.36ZM464,602.25c0-15.36-6.92-20.92-14.79-20.92-6.91,0-12.28,4.22-17.37,8.92V615.6c4.41,5.47,9.12,7.87,15.45,7.87C458.71,623.47,464,615.6,464,602.25Z"/><path class="cls-2" d="M478.39,603.5c0-16,10.75-27.16,24.57-27.16,14,0,20.93,11.42,20.93,22.55H486.16c-.09,1.06-.19,2.21-.19,3.36,0,12.19,5.95,20.83,17.09,20.83A20.94,20.94,0,0,0,521.59,612l1.63,1c-3.75,10.08-11.62,15.74-21.79,15.74C487.7,628.65,478.39,618.48,478.39,603.5Zm37.63-8c-.77-8.83-4.8-15.84-13.35-15.84-8.25,0-14.11,6.44-16,15.84Z"/><path class="cls-2" d="M530.42,603.5c0-16,10.75-27.16,26.11-27.16a28.59,28.59,0,0,1,16.9,5.37l-3.75,13.34-1.92-.38c-.19-8.35-1.73-14.5-11.52-14.5-11.9,0-18.33,9.22-18.33,21.79,0,12.2,6.05,21.12,17.28,21.12A20.89,20.89,0,0,0,573.62,612l1.63,1c-3.74,10.08-11.62,15.74-21.79,15.74C539.73,628.65,530.42,618.48,530.42,603.5Z"/><path class="cls-2" d="M582,627.5v-3.36c4.23-.29,8.16-1.63,8.16-4.13V584.78c0-2-3-2.21-8.16-2.21v-3.36l15.36-2.87V620c0,2.5,3.94,3.84,8.16,4.13v3.36Zm10.66-56L586.2,565v-.77l6.43-6.53,6.53,6.53V565Z"/><path class="cls-2" d="M611.73,614.35c0-12.48,14.5-16.42,29.57-17.38l8.73-.57v-3.07c0-10.66-6.43-13.64-13.15-13.64-8.35,0-13.82,4.52-16.32,14.5h-1.92l-1-13.92a55.7,55.7,0,0,1,19.68-3.93c9.7,0,19.87,3.55,19.87,17v26.59c0,3.26,1.25,4.12,3.08,4.12,2.49,0,5.08-1.72,6.14-2.68l1.34,1.34c-1.72,2.5-5.56,5.95-10.08,5.95-4,0-7.68-2.88-7.68-8.73v-1.73l-6.72,7.1a25,25,0,0,1-12.95,3.36C619.51,628.65,611.73,623.47,611.73,614.35Zm38.3-1.06v-13l-7.58.39c-9.79.48-23,2.59-23,13.44,0,6,4,10.08,11.33,10.08C638.42,624.24,645.62,619.72,650,613.29Z"/><path class="cls-2" d="M670.68,627.5v-3.36c4.22-.29,8.16-1.63,8.16-4.13V562.32c0-2-3-2.21-8.16-2.21v-3.36L686,553.87V620c0,2.5,3.93,3.84,8.15,4.13v3.36Z"/><path class="cls-2" d="M724.92,593.81c0-20.35,11.52-34.75,31.58-34.75a32.28,32.28,0,0,1,23.23,9.21l-7.87,16.22-2.31-.48.68-6.43c1-10-5.09-15.16-13.83-15.16-10.08,0-24.09,6.81-24.09,29,0,18.43,9.69,30.14,25,30.14,12.09,0,18.91-7.39,22.27-13.15l1.82.67c-4.13,10.85-13.15,19.58-26.78,19.58C737.78,628.65,724.92,615.31,724.92,593.81Z"/><path class="cls-2" d="M789.05,614.35c0-12.48,14.49-16.42,29.56-17.38l8.74-.57v-3.07c0-10.66-6.44-13.64-13.15-13.64-8.36,0-13.83,4.52-16.32,14.5H796l-1-13.92a55.6,55.6,0,0,1,19.67-3.93c9.7,0,19.88,3.55,19.88,17v26.59c0,3.26,1.24,4.12,3.07,4.12a10.44,10.44,0,0,0,6.14-2.68l1.34,1.34c-1.72,2.5-5.56,5.95-10.07,5.95-4,0-7.68-2.88-7.68-8.73v-1.73l-6.72,7.1a25.07,25.07,0,0,1-13,3.36C796.82,628.65,789.05,623.47,789.05,614.35Zm38.3-1.06v-13l-7.59.39c-9.79.48-23,2.59-23,13.44,0,6,4,10.08,11.33,10.08C815.73,624.24,822.93,619.72,827.35,613.29Z"/><path class="cls-2" d="M848,627.5v-3.36c4.22-.29,8.16-1.63,8.16-4.13V584.78c0-2-3-2.21-8.16-2.21v-3.36l15.36-2.87v13.24l10.27-10.27a21.69,21.69,0,0,1,9.12-2.21l-.1,6.43c-7.77,0-14.88,6-19.29,9.7V620c0,2.5,3.93,3.84,8.16,4.13v3.36Z"/><path class="cls-2" d="M886.68,602.83c0-17.09,9.4-26.49,22.56-26.49,8.92,0,14.11,4.31,17.75,8.44V562.32c0-2-3-2.21-8.15-2.21v-3.36l15.35-2.88V620c0,2,3,2.21,8.16,2.21v3.36L927,628.46v-9.6l-9.4,8a24.22,24.22,0,0,1-9.6,1.82C895.51,628.65,886.68,619.44,886.68,602.83ZM927,614.25V590.06c-4.51-5.85-9.31-8.54-15.93-8.54-11.42,0-16.7,7.87-16.7,21.21,0,15.36,6.91,20.93,14.78,20.93C916.24,623.66,921.72,619.15,927,614.25Z"/><path class="cls-2" d="M949.08,621.07l5.56-14.31,1.83.49c-1,11.32,3.36,18,14.49,18,10.56,0,15.84-6.14,15.84-12.57,0-3.75-1.73-6.15-11.52-8.16l-10.65-2.21c-10.66-2.21-13.83-7.78-13.83-13,0-8.64,8.55-13,21.32-13a30.72,30.72,0,0,1,18.33,5.27l-3.55,13.64-1.83-.48c-.38-9.8-3.64-15-13.53-15.08-8.35,0-14.21,3.65-14.21,8.55,0,2.78,1.83,5.76,9.89,7.39l8.64,1.73c13.53,2.68,17.76,7.48,17.76,14.78,0,10.08-8,16.51-22.08,16.51A35.13,35.13,0,0,1,949.08,621.07Z"/></svg>