<svg id="Layer_1" data-name="Layer 1" xmlns="http://www.w3.org/2000/svg" viewBox="0 0 1080 1080"><defs><style>.cls-1{fill:#262938;}</style></defs><g id="_Radial_Repeat_" data-name="&lt;Radial Repeat&gt;"><g id="_Radial_Repeat_2" data-name="&lt;Radial Repeat&gt;"><path class="cls-1" d="M477.33,480.22l-.13.07L477,480C477.08,480.07,477.2,480.15,477.33,480.22Z"/><path class="cls-1" d="M603.18,460.86a23.28,23.28,0,0,0-4.64-6.65,32.54,32.54,0,0,0-7.85-5.67,41.7,41.7,0,0,0-9-3.44l-.14,0a.33.33,0,0,1-.13,0,50.87,50.87,0,0,0-15.52-1.44c-.64,0-1.29.09-1.94.15-1.58.16-3.18.39-4.77.69-.8.16-1.61.34-2.41.52a40.44,40.44,0,0,0-16,7.66c-.19.15-.38.29-.55.45-.4-.38-.81-.74-1.24-1.09a39.37,39.37,0,0,0-15.91-7.76q-1.22-.29-2.43-.54a54.67,54.67,0,0,0-8-.95c-.82,0-1.64-.05-2.46-.05a54,54,0,0,0-12.25,1.46.37.37,0,0,1-.14,0,.33.33,0,0,1-.15,0,45.26,45.26,0,0,0-9.39,3.38,35.69,35.69,0,0,0-8.3,5.62,25,25,0,0,0-5.08,6.63,18.83,18.83,0,0,0-2.14,8v0a17.41,17.41,0,0,0,.35,3.94,20.2,20.2,0,0,0,2.2,5.69h0A19.51,19.51,0,0,0,477,480c.12.08.24.16.37.23a21.76,21.76,0,0,0,6,2.56,17.82,17.82,0,0,0,4,.54h0a18.65,18.65,0,0,0,8.06-1.68,23.33,23.33,0,0,0,6.71-4.61,32.16,32.16,0,0,0,5.72-7.77,41.13,41.13,0,0,0,3.47-9,.28.28,0,0,1,0-.13.33.33,0,0,1,0-.14,50.11,50.11,0,0,0,1.46-15.4,23.63,23.63,0,0,1,8,3.12,23.28,23.28,0,0,1,8.05,8.39,21.65,21.65,0,0,1,2.8,11.5,22,22,0,0,1-.17,2.2q-1.2,4.73-6.53,8.93a66.66,66.66,0,0,1-12.43,7.64c-2.87,1.2-5.73,2.27-8.56,3.24s-5.21,1.72-7.16,2.28c-.43.12-.85.23-1.27.36-.61.16-1.22.35-1.83.55a34.65,34.65,0,0,0-7.46,3.54,28.84,28.84,0,0,0-8.74,8.21A21.3,21.3,0,0,0,473.75,516a19.26,19.26,0,0,0,.28,3.94,21.41,21.41,0,0,0,4.87,10.3,29.36,29.36,0,0,0,9,7,36.63,36.63,0,0,0,10.81,3.57,41.32,41.32,0,0,0,12.37.11,37.61,37.61,0,0,0,12-3.75,30.41,30.41,0,0,0,9.77-7.87,23.56,23.56,0,0,0,3.88-7.06,20.1,20.1,0,0,0,1-8c-.07-.9-.19-1.8-.35-2.7-.42.69-.79,1.29-1.14,1.81a19.76,19.76,0,0,1-3.14,3.67,5.91,5.91,0,0,1-4.19,1.78,27.1,27.1,0,0,1-4.79,12.52,20.71,20.71,0,0,1-9.51,7.47,40.08,40.08,0,0,1-7,1,17.4,17.4,0,0,1-9.48-3.65,21.73,21.73,0,0,1-6.56-8.5,26.35,26.35,0,0,1-2.22-11.68,28.3,28.3,0,0,1,.54-4.94,16.47,16.47,0,0,1,4.83-7.54,34.89,34.89,0,0,1,8-5.48,62.33,62.33,0,0,1,8.87-3.65c2.89-.93,5.3-1.62,7.25-2.06,1.07-.19,2.13-.4,3.19-.66.89-.21,1.76-.44,2.6-.71a43.46,43.46,0,0,0,9-3.84,31.76,31.76,0,0,0,5.06-3.52,28.83,28.83,0,0,0,5.44,4.2,40.5,40.5,0,0,0,8.63,3.89c.81.26,1.65.51,2.52.73s2,.48,3.09.68q2.84.68,7,2.1a57.13,57.13,0,0,1,8.49,3.7,31.9,31.9,0,0,1,7.62,5.53,15.64,15.64,0,0,1,4.34,7.57,28.59,28.59,0,0,1,.29,4.94,27.53,27.53,0,0,1-2.77,11.66,23.07,23.07,0,0,1-6.86,8.47,17.51,17.51,0,0,1-9.46,3.57,36.83,36.83,0,0,1-6.82-1.08,19,19,0,0,1-8.94-7.52,26.33,26.33,0,0,1-4.07-12.55,5.47,5.47,0,0,1-4-1.81,18.87,18.87,0,0,1-2.9-3.69c-.31-.52-.64-1.12-1-1.81q-.3,1.35-.48,2.7a20.15,20.15,0,0,0,.63,7.95,22.4,22.4,0,0,0,3.45,7.08,27.86,27.86,0,0,0,9.17,7.93,35.05,35.05,0,0,0,11.54,3.83,40.35,40.35,0,0,0,12.12,0,37.52,37.52,0,0,0,10.77-3.51,30.77,30.77,0,0,0,9.18-7A22.9,22.9,0,0,0,601,521a20.8,20.8,0,0,0-2.62-15.34,26.87,26.87,0,0,0-8.14-8.27,31.58,31.58,0,0,0-7.14-3.57c-.59-.22-1.17-.41-1.76-.58l-1.22-.36q-2.83-.85-6.91-2.33c-2.73-1-5.46-2.08-8.22-3.29a61.85,61.85,0,0,1-11.8-7.7q-5-4.26-5.95-9c-.05-.71-.07-1.44-.05-2.2a22.92,22.92,0,0,1,3.33-11.48,24.44,24.44,0,0,1,8.3-8.34,23.67,23.67,0,0,1,5.07-2.32,53,53,0,0,0,1.48,12.14.35.35,0,0,1,0,.14.25.25,0,0,1,0,.14,44.21,44.21,0,0,0,3.41,9.32,35.29,35.29,0,0,0,5.67,8.23,24.66,24.66,0,0,0,6.68,5,19,19,0,0,0,8,2.13h0a18.27,18.27,0,0,0,4-.35,20.2,20.2,0,0,0,8.28-3.86l.23-.36a21.74,21.74,0,0,0,2.58-5.91,18.23,18.23,0,0,0,.54-3.94v0A18.27,18.27,0,0,0,603.18,460.86Zm-91.81-10.31c-.08,1.14-.19,2.25-.33,3.36v0a22.62,22.62,0,0,1-4.28,9.9A23,23,0,0,1,487.7,473a24.5,24.5,0,0,1-3.85-.39,23.57,23.57,0,0,1-.42-5.07,22.54,22.54,0,0,1,2.93-10.71,24.66,24.66,0,0,1,7.4-8.14,25,25,0,0,1,10.41-4.17h0c1.15-.14,2.3-.24,3.47-.31h.64l.93,0c.47,0,.93.07,1.4.12a25.71,25.71,0,0,1,.69,4.71c0,.32,0,.61,0,.9ZM594,472.29a23.36,23.36,0,0,1-5.12.41,22.87,22.87,0,0,1-10.8-2.9,24.76,24.76,0,0,1-8.2-7.33,24.48,24.48,0,0,1-4.21-10.33v0c-.14-1.14-.25-2.28-.31-3.43V448c0-.29,0-.59,0-.91,0-.47.07-.93.12-1.39a26,26,0,0,1,4.75-.69l.91,0h.63c1.14.08,2.27.18,3.38.33h0a23,23,0,0,1,16.82,12.42,22,22,0,0,1,2.34,10.73A26.44,26.44,0,0,1,594,472.29Z"/><path class="cls-1" d="M599,480.8a21,21,0,0,0,2.53-1.69"/></g><ellipse class="cls-1" cx="629.13" cy="515.09" rx="15.07" ry="14.95"/></g><g id="_Radial_Repeat_3" data-name="&lt;Radial Repeat&gt;"><g id="_Radial_Repeat_4" data-name="&lt;Radial Repeat&gt;"><path class="cls-1" d="M476.07,356.49c-.07.11-.14.23-.22.34l-.07-.12Z"/><path class="cls-1" d="M603.58,315.67a21.54,21.54,0,0,0-4.87-10.3,29.28,29.28,0,0,0-9-7,36.87,36.87,0,0,0-10.8-3.57,42,42,0,0,0-12.37-.11,37.45,37.45,0,0,0-12,3.75,30.19,30.19,0,0,0-9.77,7.87,23.59,23.59,0,0,0-3.89,7.06,20,20,0,0,0-1,8,27.11,27.11,0,0,0,.35,2.69c.41-.69.79-1.28,1.13-1.81a20.57,20.57,0,0,1,3.15-3.67,5.88,5.88,0,0,1,4.19-1.77,26.94,26.94,0,0,1,4.78-12.52,20.66,20.66,0,0,1,9.52-7.47,40.08,40.08,0,0,1,7-1.05,17.39,17.39,0,0,1,9.48,3.64,21.86,21.86,0,0,1,6.56,8.51,26.33,26.33,0,0,1,2.22,11.67,30.24,30.24,0,0,1-.54,4.94,16.63,16.63,0,0,1-4.83,7.55,35,35,0,0,1-8,5.48,63.42,63.42,0,0,1-8.86,3.65c-2.89.92-5.3,1.61-7.25,2.05-1.08.19-2.14.41-3.2.66-.89.22-1.76.45-2.6.71a44.24,44.24,0,0,0-9,3.84,31.18,31.18,0,0,0-5.06,3.53,28.89,28.89,0,0,0-5.45-4.2,41,41,0,0,0-8.62-3.9c-.81-.26-1.66-.5-2.52-.72-1-.26-2-.49-3.09-.68-1.89-.46-4.22-1.15-7-2.1a58.29,58.29,0,0,1-8.5-3.7,32.11,32.11,0,0,1-7.61-5.53,15.73,15.73,0,0,1-4.35-7.58,29.51,29.51,0,0,1-.28-4.94,27.63,27.63,0,0,1,2.76-11.65,23.1,23.1,0,0,1,6.86-8.47,17.59,17.59,0,0,1,9.47-3.58,36.61,36.61,0,0,1,6.81,1.09,19,19,0,0,1,8.95,7.52A26.17,26.17,0,0,1,530.35,316a5.45,5.45,0,0,1,4,1.82,18.82,18.82,0,0,1,2.91,3.68c.3.52.64,1.13,1,1.81.2-.9.36-1.79.48-2.69a20.21,20.21,0,0,0-.62-8,22.61,22.61,0,0,0-3.45-7.08,27.9,27.9,0,0,0-9.18-7.93A34.68,34.68,0,0,0,514,293.87a40.35,40.35,0,0,0-12.12,0,37.42,37.42,0,0,0-10.77,3.51,30.78,30.78,0,0,0-9.19,7,22.78,22.78,0,0,0-5.28,10.27A20.65,20.65,0,0,0,479.24,330a27,27,0,0,0,8.14,8.27,32,32,0,0,0,7.14,3.57c.58.21,1.17.41,1.75.57l1.23.36q2.82.87,6.9,2.34c2.73,1,5.47,2.07,8.23,3.29a62.16,62.16,0,0,1,11.8,7.7c3.33,2.83,5.32,5.83,5.94,9,0,.71.07,1.45,0,2.2a22.88,22.88,0,0,1-3.32,11.48,24.62,24.62,0,0,1-8.3,8.34,23.56,23.56,0,0,1-5.08,2.33,53.11,53.11,0,0,0-1.47-12.15.31.31,0,0,1,0-.13.3.3,0,0,1-.05-.14,44,44,0,0,0-3.4-9.32,35.48,35.48,0,0,0-5.67-8.23,25.06,25.06,0,0,0-6.68-5,19,19,0,0,0-8.05-2.12h0a17.62,17.62,0,0,0-4,.35,20.85,20.85,0,0,0-5.75,2.18,18.91,18.91,0,0,0-2.54,1.68c-.07.11-.14.23-.22.34a22,22,0,0,0-2.58,5.93,17.55,17.55,0,0,0-.54,3.94v0a18.39,18.39,0,0,0,1.69,8,23.31,23.31,0,0,0,4.65,6.65,32.45,32.45,0,0,0,7.84,5.68,41.94,41.94,0,0,0,9,3.43.33.33,0,0,1,.13,0,.37.37,0,0,1,.14,0A51.43,51.43,0,0,0,511.73,392a22.64,22.64,0,0,1-3.14,7.93,23.36,23.36,0,0,1-8.45,8,22.17,22.17,0,0,1-11.6,2.77c-.76,0-1.5-.07-2.22-.16-3.17-.8-6.18-2.95-9-6.47a66.3,66.3,0,0,1-7.71-12.34q-1.8-4.28-3.26-8.48T464,376.13c-.11-.42-.23-.84-.35-1.26-.17-.6-.36-1.21-.57-1.81a33.59,33.59,0,0,0-3.56-7.4,29,29,0,0,0-8.28-8.67,21.66,21.66,0,0,0-11.49-3.7,21.15,21.15,0,0,0-4,.27,21.81,21.81,0,0,0-10.39,4.84,29.22,29.22,0,0,0-7.08,8.93,36.08,36.08,0,0,0-3.6,10.72,40.59,40.59,0,0,0-.11,12.26,36.83,36.83,0,0,0,3.78,11.88,30.16,30.16,0,0,0,7.94,9.68,23.56,23.56,0,0,0,7.12,3.85,20.4,20.4,0,0,0,8,1c.92-.07,1.82-.19,2.73-.35-.7-.41-1.3-.78-1.82-1.12a20.16,20.16,0,0,1-3.71-3.12A5.84,5.84,0,0,1,436.9,408a27.4,27.4,0,0,1-12.62-4.74,20.55,20.55,0,0,1-7.54-9.44,39.28,39.28,0,0,1-1.05-7,17,17,0,0,1,3.67-9.4,22,22,0,0,1,8.58-6.5,27.15,27.15,0,0,1,11.77-2.21,30.86,30.86,0,0,1,5,.54,16.92,16.92,0,0,1,7.62,4.79,34.62,34.62,0,0,1,5.51,8,62.57,62.57,0,0,1,3.69,8.79c.93,2.86,1.63,5.26,2.07,7.19.19,1.07.41,2.12.67,3.17.21.88.44,1.74.71,2.58a43.71,43.71,0,0,0,3.87,8.93,31.51,31.51,0,0,0,3.55,5,29,29,0,0,0-4.23,5.4,40.77,40.77,0,0,0-3.93,8.55c-.26.81-.5,1.65-.72,2.5-.27,1-.5,2-.69,3.07-.46,1.87-1.17,4.18-2.11,6.94a57.39,57.39,0,0,1-3.74,8.42,31.92,31.92,0,0,1-5.58,7.56,15.83,15.83,0,0,1-7.63,4.3,31.23,31.23,0,0,1-5,.29A28.4,28.4,0,0,1,427,462a23.33,23.33,0,0,1-8.55-6.79,17.23,17.23,0,0,1-3.6-9.39,37.17,37.17,0,0,1,1.09-6.77,19,19,0,0,1,7.59-8.87,26.86,26.86,0,0,1,12.65-4,5.39,5.39,0,0,1,1.83-4,18.5,18.5,0,0,1,3.72-2.88c.52-.3,1.13-.63,1.82-1a25.84,25.84,0,0,0-2.72-.48,20.52,20.52,0,0,0-8,.62,22.53,22.53,0,0,0-7.14,3.42,27.9,27.9,0,0,0-8,9.09,34.37,34.37,0,0,0-3.85,11.45,39.31,39.31,0,0,0,0,12,36.69,36.69,0,0,0,3.53,10.69,30.75,30.75,0,0,0,7,9.1,23.2,23.2,0,0,0,10.35,5.24,21.09,21.09,0,0,0,15.49-2.6,26.83,26.83,0,0,0,8.33-8.07,30.81,30.81,0,0,0,3.6-7.07c.22-.59.41-1.16.58-1.75l.37-1.21c.58-1.87,1.36-4.15,2.34-6.86s2.1-5.41,3.32-8.14a61.54,61.54,0,0,1,7.77-11.71c2.86-3.3,5.88-5.28,9.05-5.9.72,0,1.46-.06,2.22,0a23.42,23.42,0,0,1,11.58,3.29,24.66,24.66,0,0,1,8.41,8.24,23.25,23.25,0,0,1,2.35,5c.82,0,1.64,0,2.46.05q-.23-2.36-.69-4.74c-.16-.8-.34-1.59-.53-2.39a40,40,0,0,0-7.72-15.84c-.15-.19-.3-.36-.46-.54.39-.4.75-.8,1.11-1.23a38.93,38.93,0,0,0,7.82-15.77c.19-.81.37-1.61.54-2.41a53.9,53.9,0,0,0,1-7.95c1.59-.15,3.18-.38,4.78-.68.8-.16,1.61-.34,2.41-.53a40.41,40.41,0,0,0,16-7.65l.55-.46c.4.39.81.75,1.23,1.1a39.62,39.62,0,0,0,15.91,7.76l2.43.54a53.45,53.45,0,0,0,8,.94c-.06-.64-.12-1.28-.16-1.91a23.1,23.1,0,0,1-8-3.12,23.37,23.37,0,0,1-8.06-8.38A21.79,21.79,0,0,1,546,368c0-.75.07-1.49.16-2.2q1.2-4.71,6.53-8.93a67.27,67.27,0,0,1,12.44-7.63c2.87-1.2,5.73-2.28,8.55-3.24s5.22-1.72,7.17-2.29l1.27-.35c.61-.16,1.22-.35,1.83-.56a35.06,35.06,0,0,0,7.46-3.53,29.2,29.2,0,0,0,8.74-8.21,21.36,21.36,0,0,0,3.74-11.39A20.09,20.09,0,0,0,603.58,315.67Zm-91.36,71.9c0,.29,0,.6-.05.92s-.06.93-.12,1.39a26,26,0,0,1-4.74.69c-.33,0-.62,0-.91,0h-.63c-1.14-.07-2.27-.18-3.38-.32h0a23.07,23.07,0,0,1-16.83-12.42,22.16,22.16,0,0,1-2.33-10.73,23.88,23.88,0,0,1,.39-3.81,23.26,23.26,0,0,1,5.11-.42,23,23,0,0,1,10.81,2.91,24.66,24.66,0,0,1,12.41,17.66v0c.14,1.14.24,2.28.31,3.44Z"/><path class="cls-1" d="M475.28,477.49A19.51,19.51,0,0,0,477,480"/></g><ellipse class="cls-1" cx="440.69" cy="507.37" rx="15.07" ry="14.95"/></g><g id="_Radial_Repeat_5" data-name="&lt;Radial Repeat&gt;"><g id="_Radial_Repeat_6" data-name="&lt;Radial Repeat&gt;"><path class="cls-1" d="M478.61,354.81a18.91,18.91,0,0,0-2.54,1.68"/><path class="cls-1" d="M600.64,355.6l-.36-.23.12-.07Z"/></g><ellipse class="cls-1" cx="448.48" cy="320.51" rx="15.07" ry="14.95"/></g><g id="_Radial_Repeat_7" data-name="&lt;Radial Repeat&gt;"><g id="_Radial_Repeat_8" data-name="&lt;Radial Repeat&gt;"><path class="cls-1" d="M654.06,405.39a26.83,26.83,0,0,1-12.65,4,5.39,5.39,0,0,1-1.82,4,18.78,18.78,0,0,1-3.72,2.88c-.53.31-1.14.64-1.82,1,.9.2,1.81.36,2.71.48a20.76,20.76,0,0,0,8-.62,22.85,22.85,0,0,0,7.14-3.42,28,28,0,0,0,8-9.1,34.32,34.32,0,0,0,3.85-11.44,39.06,39.06,0,0,0,0-12,36,36,0,0,0-3.53-10.68,30.58,30.58,0,0,0-7-9.1,23.17,23.17,0,0,0-10.35-5.25,21.24,21.24,0,0,0-15.48,2.6A27,27,0,0,0,619,366.8a31.28,31.28,0,0,0-3.6,7.08c-.21.58-.41,1.16-.58,1.75l-.36,1.21c-.58,1.87-1.37,4.14-2.35,6.85s-2.1,5.42-3.32,8.15a60.67,60.67,0,0,1-7.77,11.7q-4.29,5-9,5.9c-.72.05-1.45.07-2.21.05a23.3,23.3,0,0,1-11.58-3.3,24.45,24.45,0,0,1-8.41-8.23,22.87,22.87,0,0,1-2.35-5,54,54,0,0,0,12.25-1.46.58.58,0,0,1,.14,0,.23.23,0,0,1,.14,0,45.22,45.22,0,0,0,9.39-3.37,36,36,0,0,0,8.31-5.63,24.89,24.89,0,0,0,5.07-6.62,18.78,18.78,0,0,0,2.15-8v0a17.45,17.45,0,0,0-.36-3.95,20.49,20.49,0,0,0-2.19-5.69,20,20,0,0,0-1.69-2.51l-.36-.23a22.52,22.52,0,0,0-6-2.56,17.4,17.4,0,0,0-4-.53h0a18.8,18.8,0,0,0-8.07,1.67,23.67,23.67,0,0,0-6.71,4.61,32.55,32.55,0,0,0-5.72,7.78,40.7,40.7,0,0,0-3.46,9,.33.33,0,0,1,0,.13.25.25,0,0,1,0,.14A50,50,0,0,0,564.81,391c0,.63.1,1.27.16,1.91.15,1.58.38,3.16.69,4.75.16.79.34,1.59.53,2.38a39.83,39.83,0,0,0,7.72,15.84c.15.19.29.37.45.54-.38.4-.74.81-1.1,1.23a38.91,38.91,0,0,0-7.82,15.78c-.2.81-.38,1.6-.55,2.41a53.77,53.77,0,0,0-1,7.94c.65-.06,1.3-.12,1.94-.15a22.76,22.76,0,0,1,3.14-7.93,23.38,23.38,0,0,1,8.46-8,22.14,22.14,0,0,1,11.59-2.78c.77,0,1.51.08,2.23.16q4.76,1.2,9,6.48a66.27,66.27,0,0,1,7.7,12.34q1.82,4.26,3.27,8.48c1,2.8,1.73,5.17,2.3,7.11l.36,1.25c.16.6.35,1.21.57,1.82a34.22,34.22,0,0,0,3.55,7.4,29.13,29.13,0,0,0,8.28,8.66,21.79,21.79,0,0,0,11.49,3.71,20.24,20.24,0,0,0,4-.28,21.8,21.8,0,0,0,10.39-4.83,29,29,0,0,0,7.09-8.94,36.09,36.09,0,0,0,3.59-10.71,40.59,40.59,0,0,0,.12-12.26,36.77,36.77,0,0,0-3.79-11.88,30,30,0,0,0-7.94-9.69,23.61,23.61,0,0,0-7.11-3.85,20.44,20.44,0,0,0-8-1c-.91.07-1.82.18-2.72.34.69.41,1.3.79,1.82,1.13a20.11,20.11,0,0,1,3.7,3.12,5.73,5.73,0,0,1,1.79,4.15,27.51,27.51,0,0,1,12.63,4.75,20.47,20.47,0,0,1,7.53,9.44,39.33,39.33,0,0,1,1.06,7,17.16,17.16,0,0,1-3.67,9.41,22.26,22.26,0,0,1-8.58,6.5,27,27,0,0,1-11.77,2.2,29.66,29.66,0,0,1-5-.54,16.77,16.77,0,0,1-7.62-4.78,34.81,34.81,0,0,1-5.52-8,61.22,61.22,0,0,1-3.68-8.78c-.94-2.87-1.63-5.26-2.08-7.2-.19-1.06-.4-2.11-.66-3.16q-.32-1.33-.72-2.58a42.94,42.94,0,0,0-3.87-8.93,31.4,31.4,0,0,0-3.55-5,28.31,28.31,0,0,0,4.23-5.4,39.56,39.56,0,0,0,3.93-8.55c.27-.81.51-1.64.73-2.49.26-1,.49-2,.68-3.07.46-1.87,1.17-4.18,2.12-6.95a55.78,55.78,0,0,1,3.74-8.42,31.63,31.63,0,0,1,5.57-7.55,15.87,15.87,0,0,1,7.64-4.31,30.06,30.06,0,0,1,5-.28,28.27,28.27,0,0,1,11.76,2.74,23.21,23.21,0,0,1,8.54,6.8,17.2,17.2,0,0,1,3.6,9.38,35.16,35.16,0,0,1-1.09,6.76A18.87,18.87,0,0,1,654.06,405.39Zm-87.8-18.82c0-.33,0-.62,0-.9V385c.08-1.13.19-2.25.34-3.35v0a22.46,22.46,0,0,1,4.28-9.9,23,23,0,0,1,8.24-6.79,22.58,22.58,0,0,1,10.81-2.31,24.51,24.51,0,0,1,3.86.39,23.43,23.43,0,0,1,.41,5.06,22.32,22.32,0,0,1-2.93,10.72,24.51,24.51,0,0,1-7.4,8.13,25,25,0,0,1-10.4,4.18h-.05c-1.14.13-2.29.23-3.46.3h-.65c-.29,0-.6,0-.92,0-.47,0-.94-.06-1.4-.12A24.65,24.65,0,0,1,566.26,386.57Z"/><path class="cls-1" d="M601.83,478.88l-.3.23.23-.36Z"/></g><ellipse class="cls-1" cx="636.91" cy="328.23" rx="15.07" ry="14.95"/></g><path class="cls-1" d="M235.87,582.67l5.21,5,5.22-5,5.1,5v1.38l-5.1,5-5.22-5-5.21,5-5.1-5v-1.38Z"/><path class="cls-1" d="M256,631.51l-.11-.63-2.5,5.53c-7.38.64-12.81,1-22-.64l-2.39-8.41c5.76-6.49,14.55-13.09,23.57-18.62l-.66-4.26,3.37-5.85,1.2.43,2.49,23.83c1,9.37,5,10.33,11.3,10.33,1.41,0,2.17.85,2.17,2.44v6.81a1.93,1.93,0,0,1-2.17,2.13C261.39,644.6,257.37,641,256,631.51Zm-11.51-4.25a36.3,36.3,0,0,0,10.64-1.49l-2.28-15a138.5,138.5,0,0,0-19.76,15.54A60,60,0,0,0,244.45,627.26Z"/><path class="cls-1" d="M268,642.26v-6.6c0-1.59.76-2.44,2.17-2.44h23.89c1.41,0,2.17.85,2.17,2.44v6.6c0,1.6-.76,2.34-2.17,2.34H270.18C268.77,644.6,268,643.86,268,642.26Z"/><path class="cls-1" d="M291.9,642.26v-6.6c0-1.59.76-2.44,2.17-2.44H318c1.41,0,2.17.85,2.17,2.44v6.6c0,1.6-.76,2.34-2.17,2.34H294.07C292.66,644.6,291.9,643.86,291.9,642.26Z"/><path class="cls-1" d="M315.78,642.26v-6.6c0-1.59.76-2.44,2.18-2.44h23.88c1.42,0,2.18.85,2.18,2.44v6.6c0,1.6-.76,2.34-2.18,2.34H318C316.54,644.6,315.78,643.86,315.78,642.26Z"/><path class="cls-1" d="M360.84,636.41c-2.6,6.17-8.79,8.19-19,8.19-1.41,0-2.17-.42-2.17-1.59v-8c0-1.17.65-1.81,2.17-1.81,3.15,0,12.82,0,17.16-1.92l1.19-8.83,1.85-3,.76.11c1.3,11.49,4.45,13.62,10.21,13.62,16.18-20.65,24.32-26,32.57-26,9.23,0,18.68,8.2,22,18L423.39,639c-7.17,3.19-17.7,5.64-39.53,5.64C372.68,644.6,365.4,642.47,360.84,636.41Zm31.71-3.19c11.62,0,25.63-2.13,32.14-4.47-5-8.41-14-12.56-20.19-12.56-8.91,0-19,6-29.1,17Z"/><path class="cls-1" d="M441.41,630.56,439,582.88l4.67-7.13,1.19.43v54.48a30.17,30.17,0,0,0,13,2.56c1.41,0,2.07.85,2.07,2.23v7c0,1.39-.55,2.13-2.18,2.13C447.92,644.6,441.84,639,441.41,630.56Z"/><path class="cls-1" d="M491.35,588.1l5.32,5.21v1.28l-5.32,5.21L486,594.59V593.2Z"/><path class="cls-1" d="M507.86,627.36C493,634,482.78,644.6,457.8,644.6a1.93,1.93,0,0,1-2.17-2.13v-7.13c0-1.48.65-2.12,2.17-2.12,16.07,0,28.34-5,39.31-8.94a74.57,74.57,0,0,1-7.28-2.34l-22-8.2-3.47,7.45h-.76l-.44-.64,6.41-14,1.3-.64,26.61,9.58c10.85,3.93,20,4.89,27.47-.32l.54.53-3.26,5.42c-2,3.41-5.75,5-10.75,5.22,2.83,3.94,9.78,6.92,20.09,6.92,1.52,0,2.06.85,2.06,2.23v7c0,1.39-.54,2.13-2.17,2.13C517.52,644.6,509.6,637.47,507.86,627.36Z"/><path class="cls-1" d="M529.24,642.47v-7c0-1.38.66-2.23,2.07-2.23,5.64,0,12.38-.64,16.83-2.13l-3-47.89,4.23-6.81,1.31.32,2.93,18.2-2,1.28-.21,35.75-5.22,10.85a53.31,53.31,0,0,1-14.76,1.81C529.79,644.6,529.24,643.86,529.24,642.47Z"/><path class="cls-1" d="M570,644.6l-3.25-61.4,4.34-6.81,1.19.32,2.83,18.41-2,1.17-.32,37.78-2.28,10.53Z"/><path class="cls-1" d="M619.15,677.59l5.21,5,5.21-5,5.11,5V684l-5.11,5-5.21-5-5.21,5L614,684v-1.38Z"/><path class="cls-1" d="M642.17,586.29l5.21,5,5.21-5,5.1,5v1.38l-5.1,5-5.21-5-5.21,5-5.11-5v-1.38Z"/><path class="cls-1" d="M651.72,628.11l-6.08-14.9,3.91-7.56,1.09.43c1.63,7.77,3.15,14.58,3.47,21l-4,10a28,28,0,0,1-7.39,3.19l7.71,2.13c7.39,2.34,8.91,6.6,5.65,14.15-6.84,7-20.09,12.66-33.12,12.66-16.18,0-27.8-7.34-27.8-23.41,0-7.45,4-14.36,7.93-18.19l.65.42c-3.58,5.22-5.54,10.32-5.54,15.32,0,10.11,10.86,15.43,24.76,15.43a52.66,52.66,0,0,0,30.73-10.1l-24.32-6.81V639.5l3.47-5.33C637.72,633.75,646.51,631.83,651.72,628.11Z"/><path class="cls-1" d="M671.81,630.56l-2.39-47.68,4.67-7.13,1.19.43v54.48a30.17,30.17,0,0,0,13,2.56c1.41,0,2.07.85,2.07,2.23v7c0,1.39-.55,2.13-2.18,2.13C678.32,644.6,672.24,639,671.81,630.56Z"/><path class="cls-1" d="M703.62,574.48l5.21,5,5.21-5,5.11,5v1.38l-5.11,5-5.21-5-5.21,5-5.1-5v-1.38Z"/><path class="cls-1" d="M686,642.69v-7.56c0-1.17.65-1.91,2.17-1.91h10c7.39,0,20.52-.75,27.91-2.45a40.63,40.63,0,0,0-2.5-10.54c-7.38,4.37-17.37,4.79-27.25,2.13l-2.5-7.23c3-12.77,8.14-21.07,15-21.07,9.67,0,18.35,15.85,20,35.64l-4.45,12.35c-9.55,2.13-26.28,2.55-36.16,2.55C686.79,644.6,686,644,686,642.69Zm35.62-27c-3.8-7.66-9.23-13.41-14.12-13.41-3.58,0-8.69,3.51-11.73,12.34A75.22,75.22,0,0,0,721.65,615.66Z"/><path class="cls-1" d="M743.69,630.56l-2.39-47.68,4.67-7.13,1.19.43v54.48a30.17,30.17,0,0,0,13,2.56c1.41,0,2.06.85,2.06,2.23v7c0,1.39-.54,2.13-2.17,2.13C750.2,644.6,744.12,639,743.69,630.56Z"/><path class="cls-1" d="M816.87,641c-7.49,2.13-17.92,3.62-30.3,3.62H760.08a1.88,1.88,0,0,1-2.17-2.13v-7.34c0-1.27.76-1.91,2.17-1.91h12l-2.39-50.34,4.24-6.81,1.19.43L778,594.8,776.15,596,776,629.39l.54.31c7.71-10.64,20.42-22.13,28.78-22.13,10.21,0,17.92,7.45,21.93,17.67l-2.38,7.66c4.12.21,7.7.32,9.12.32s2.06.85,2.06,2.23v7c0,1.39-.54,2.13-2.17,2.13A47.14,47.14,0,0,1,816.87,641Zm7.49-12.45a23.58,23.58,0,0,0-19.76-11.81c-7.71,0-19.22,6.17-29.1,16.5h18C804.49,633.22,816.65,631.62,824.36,628.53Z"/><path class="cls-1" d="M848.79,655l5.32,5.11v1.38l-5.32,5.22-5.32-5.22v-1.38Z"/><path class="cls-1" d="M831.74,642.69v-7.45c0-1.38.65-2,2.17-2,8.36,0,16.51-.86,22.48-3L849.33,615l4.78-6.81,1.08.53a120.58,120.58,0,0,1,3.48,20.75l-4.34,12.13c-5.76,2.34-12.49,3-20.42,3C832.39,644.6,831.74,644.07,831.74,642.69Z"/><path class="cls-1" d="M228.15,739l2.3.67c-2.78,14.5,3.26,23,17.85,23,14.4,0,20.07-8.25,20.07-16.7,0-5.57-2.4-9.5-15.17-12.67L239.86,730c-12.48-3.07-17-8.25-17-15.74,0-11.61,11-17.85,26.3-17.85,10.37,0,17.57,2.88,24.57,6.43l-5.56,16.22-2.31-.67c1.44-11.71-1.92-18.62-16.7-18.62-12.48,0-19.68,5-19.68,12.76,0,5.76,3.84,7.59,14.69,10.18l12,2.88c14.87,3.55,18.91,11.23,18.91,18.81,0,11-8.64,21.6-26.59,21.6-10,0-18.82-3.26-27.17-8.54Z"/><path class="cls-1" d="M279.12,786.57v-3.36c4.23-.28,8.16-1.63,8.16-4.12V722.16c0-2-3-2.21-8.16-2.21V716.6l15.36-2.88v9.4l8.93-7.58a24.15,24.15,0,0,1,9.6-1.82c12.48,0,21.31,9.21,21.31,25.82,0,17.08-9.41,26.49-22.56,26.49-8.54,0-13.63-3.93-17.28-7.87v20.93c0,2.49,3.94,3.84,8.16,4.12v3.36Zm47.52-46.94c0-15.35-6.91-20.92-14.78-20.92-6.91,0-12.29,4.22-17.38,8.92V753c4.42,5.47,9.12,7.87,15.46,7.87C321.36,760.85,326.64,753,326.64,739.63Z"/><path class="cls-1" d="M341,740.88c0-16,10.75-27.16,24.58-27.16,14,0,20.92,11.42,20.92,22.55H348.82c-.1,1.06-.19,2.21-.19,3.36,0,12.19,5.95,20.83,17.08,20.83a20.93,20.93,0,0,0,18.53-11.13l1.63,1C382.13,760.37,374.26,766,364.08,766,350.35,766,341,755.86,341,740.88Zm37.63-8c-.77-8.83-4.8-15.84-13.34-15.84-8.26,0-14.11,6.44-16,15.84Z"/><path class="cls-1" d="M393.07,740.88c0-16,10.76-27.16,26.11-27.16a28.57,28.57,0,0,1,16.9,5.37l-3.74,13.34-1.92-.38c-.2-8.35-1.73-14.49-11.52-14.49-11.91,0-18.34,9.21-18.34,21.79,0,12.19,6.05,21.11,17.28,21.11a20.88,20.88,0,0,0,18.43-11.13l1.63,1C434.16,760.37,426.29,766,416.11,766,402.39,766,393.07,755.86,393.07,740.88Z"/><path class="cls-1" d="M444.63,764.88v-3.36c4.22-.29,8.16-1.63,8.16-4.13V722.16c0-2-3-2.21-8.16-2.21V716.6L460,713.72v43.67c0,2.5,3.93,3.84,8.15,4.13v3.36Zm10.65-56-6.43-6.53v-.77l6.43-6.53,6.53,6.53v.77Z"/><path class="cls-1" d="M474.39,751.73c0-12.48,14.49-16.42,29.56-17.38l8.74-.57v-3.07c0-10.66-6.43-13.64-13.15-13.64-8.35,0-13.83,4.52-16.32,14.5H481.3l-1-13.92A55.61,55.61,0,0,1,500,713.72c9.69,0,19.87,3.55,19.87,17V757.3c0,3.26,1.25,4.12,3.07,4.12a10.41,10.41,0,0,0,6.14-2.68l1.35,1.34c-1.73,2.5-5.57,5.95-10.08,5.95-4,0-7.68-2.88-7.68-8.73v-1.73l-6.72,7.1A25,25,0,0,1,493,766C482.16,766,474.39,760.85,474.39,751.73Zm38.3-1.06v-13l-7.59.39c-9.79.48-23,2.59-23,13.44,0,6,4,10.08,11.32,10.08C501.07,761.62,508.27,757.1,512.69,750.67Z"/><path class="cls-1" d="M533.33,764.88v-3.36c4.22-.29,8.16-1.63,8.16-4.13V699.7c0-2-3-2.21-8.16-2.21v-3.36l15.36-2.88v66.14c0,2.5,3.94,3.84,8.16,4.13v3.36Z"/><path class="cls-1" d="M587.57,731.19c0-20.35,11.52-34.75,31.58-34.75a32.28,32.28,0,0,1,23.23,9.21l-7.87,16.22-2.3-.47.67-6.44c1.06-10-5.09-15.16-13.82-15.16-10.08,0-24.1,6.81-24.1,29,0,18.43,9.7,30.14,25,30.14,12.1,0,18.91-7.39,22.27-13.15l1.82.67C639.89,757.3,630.86,766,617.23,766,600.43,766,587.57,752.69,587.57,731.19Z"/><path class="cls-1" d="M651.7,751.73c0-12.48,14.49-16.42,29.56-17.38l8.74-.57v-3.07c0-10.66-6.43-13.64-13.15-13.64-8.35,0-13.82,4.52-16.32,14.5h-1.92l-1-13.92a55.61,55.61,0,0,1,19.68-3.93c9.69,0,19.87,3.55,19.87,17V757.3c0,3.26,1.25,4.12,3.07,4.12a10.41,10.41,0,0,0,6.14-2.68l1.35,1.34c-1.73,2.5-5.57,5.95-10.08,5.95-4,0-7.68-2.88-7.68-8.73v-1.73l-6.72,7.1a25,25,0,0,1-13,3.36C659.47,766,651.7,760.85,651.7,751.73Zm38.3-1.06v-13l-7.58.39c-9.79.48-23,2.59-23,13.44,0,6,4,10.08,11.33,10.08C678.38,761.62,685.58,757.1,690,750.67Z"/><path class="cls-1" d="M710.64,764.88v-3.36c4.23-.29,8.16-1.63,8.16-4.13V722.16c0-2-3-2.21-8.16-2.21V716.6L726,713.72V727l10.27-10.27a21.69,21.69,0,0,1,9.12-2.21l-.09,6.43c-7.78,0-14.88,6-19.3,9.7v26.78c0,2.5,3.94,3.84,8.16,4.13v3.36Z"/><path class="cls-1" d="M749.33,740.21c0-17.09,9.41-26.49,22.56-26.49,8.93,0,14.11,4.31,17.76,8.44V699.7c0-2-3-2.21-8.16-2.21v-3.36l15.36-2.88v66.14c0,2,3,2.21,8.16,2.21V763l-15.36,2.88v-9.6l-9.41,8a24.15,24.15,0,0,1-9.6,1.82C758.16,766,749.33,756.82,749.33,740.21Zm40.32,11.42V727.44c-4.51-5.85-9.31-8.54-15.94-8.54-11.42,0-16.7,7.87-16.7,21.21,0,15.36,6.91,20.93,14.78,20.93C778.9,761,784.37,756.53,789.65,751.63Z"/><path class="cls-1" d="M811.73,758.45l5.57-14.3,1.82.48c-1,11.32,3.36,18,14.5,18,10.56,0,15.84-6.14,15.84-12.57,0-3.75-1.73-6.15-11.52-8.16l-10.66-2.21c-10.65-2.21-13.82-7.78-13.82-13,0-8.64,8.54-13,21.31-13A30.72,30.72,0,0,1,853.1,719l-3.55,13.64-1.82-.48c-.39-9.79-3.65-15-13.54-15.08-8.35,0-14.2,3.65-14.2,8.55,0,2.78,1.82,5.76,9.88,7.39l8.64,1.73c13.54,2.69,17.76,7.49,17.76,14.78,0,10.08-8,16.51-22.08,16.51A35.15,35.15,0,0,1,811.73,758.45Z"/></svg>