<svg width="24" height="24" viewBox="0 0 24 24" fill="none" xmlns="http://www.w3.org/2000/svg">
<path d="M18.1699 16.25H5.83013V17.75H18.1699V16.25ZM17.5751 8.87846L17.92 11.9229L19.4105 11.7541L19.0656 8.70961L17.5751 8.87846ZM6.07998 11.9229L6.42486 8.87846L4.93439 8.70961L4.58952 11.7541L6.07998 11.9229ZM5.02705 14.3657C5.61171 13.6775 5.97774 12.8255 6.07998 11.9229L4.58952 11.7541C4.52037 12.3645 4.27319 12.9363 3.88392 13.3944L5.02705 14.3657ZM17.92 11.9229C18.0223 12.8255 18.3883 13.6775 18.9729 14.3657L20.1161 13.3944C19.7268 12.9363 19.4796 12.3645 19.4105 11.7541L17.92 11.9229ZM5.83013 16.25C4.94333 16.25 4.37925 15.1281 5.02705 14.3657L3.88392 13.3944C2.4649 15.0647 3.57827 17.75 5.83013 17.75V16.25ZM18.1699 17.75C20.4217 17.75 21.5351 15.0647 20.1161 13.3944L18.9729 14.3657C19.6207 15.1281 19.0567 16.25 18.1699 16.25V17.75ZM19.0656 8.70961C18.6504 5.04473 15.6279 2.25 12 2.25V3.75C14.8302 3.75 17.2419 5.93698 17.5751 8.87846L19.0656 8.70961ZM6.42486 8.87846C6.75807 5.93698 9.16976 3.75 12 3.75V2.25C8.37211 2.25 5.34955 5.04473 4.93439 8.70961L6.42486 8.87846Z" fill="#579E6E"/>
<path d="M15.7023 19.2632C15.8477 18.8753 15.6511 18.4431 15.2632 18.2977C14.8753 18.1523 14.4431 18.3489 14.2977 18.7368L15.7023 19.2632ZM9.70226 18.7368C9.5569 18.3489 9.12463 18.1523 8.73676 18.2977C8.34889 18.4431 8.1523 18.8753 8.29766 19.2632L9.70226 18.7368ZM14.2977 18.7368C13.975 19.5979 13.0846 20.25 12 20.25V21.75C13.6855 21.75 15.1516 20.7325 15.7023 19.2632L14.2977 18.7368ZM12 20.25C10.9154 20.25 10.025 19.5979 9.70226 18.7368L8.29766 19.2632C8.84831 20.7325 10.3145 21.75 12 21.75V20.25Z" fill="#579E6E"/>
</svg>
