<svg width="390" height="482" viewBox="0 0 390 482" fill="none" xmlns="http://www.w3.org/2000/svg">
<g clip-path="url(#clip0_14287_484)">
<path d="M390 0V463.362C334.035 476.419 267.014 484 194.99 484C122.967 484 55.9461 476.419 0 463.362V0H390Z" fill="url(#paint0_linear_14287_484)"/>
<mask id="mask0_14287_484" style="mask-type:luminance" maskUnits="userSpaceOnUse" x="156" y="180" width="386" height="378">
<path d="M435.477 531.488C530.467 478.685 568.912 363.122 521.347 273.37C473.781 183.618 358.218 153.665 263.228 206.469C168.239 259.272 129.794 374.835 177.359 464.587C224.924 554.338 340.487 584.291 435.477 531.488Z" fill="white"/>
</mask>
<g mask="url(#mask0_14287_484)">
<path d="M694.609 376.853L711.779 355.755L338.688 70.8084L321.518 91.9066L694.609 376.853Z" fill="url(#paint1_linear_14287_484)" fill-opacity="0.05"/>
<path d="M669.291 410.059L686.461 388.96L313.371 104.014L296.2 125.112L669.291 410.059Z" fill="url(#paint2_linear_14287_484)" fill-opacity="0.05"/>
<path d="M643.977 443.267L661.147 422.169L288.057 137.222L270.886 158.32L643.977 443.267Z" fill="url(#paint3_linear_14287_484)" fill-opacity="0.05"/>
<path d="M618.66 476.471L635.83 455.373L262.739 170.426L245.569 191.525L618.66 476.471Z" fill="url(#paint4_linear_14287_484)" fill-opacity="0.05"/>
<path d="M593.341 509.676L610.512 488.578L237.421 203.631L220.25 224.729L593.341 509.676Z" fill="url(#paint5_linear_14287_484)" fill-opacity="0.05"/>
<path d="M568.023 542.88L585.193 521.782L212.102 236.835L194.932 257.933L568.023 542.88Z" fill="url(#paint6_linear_14287_484)" fill-opacity="0.05"/>
<path d="M542.705 576.085L559.876 554.987L186.785 270.04L169.614 291.138L542.705 576.085Z" fill="url(#paint7_linear_14287_484)" fill-opacity="0.05"/>
<path d="M517.391 609.294L534.562 588.195L161.471 303.249L144.301 324.347L517.391 609.294Z" fill="url(#paint8_linear_14287_484)" fill-opacity="0.05"/>
<path d="M492.073 642.498L509.243 621.399L136.152 336.453L118.982 357.551L492.073 642.498Z" fill="url(#paint9_linear_14287_484)" fill-opacity="0.05"/>
<path d="M466.754 675.701L483.925 654.603L110.834 369.656L93.6636 390.754L466.754 675.701Z" fill="url(#paint10_linear_14287_484)" fill-opacity="0.05"/>
<path d="M441.438 708.908L458.608 687.809L85.5176 402.863L68.3473 423.961L441.438 708.908Z" fill="url(#paint11_linear_14287_484)" fill-opacity="0.05"/>
</g>
<mask id="mask1_14287_484" style="mask-type:luminance" maskUnits="userSpaceOnUse" x="-152" y="-19" width="385" height="378">
<path d="M-45.5625 7.51353C-140.552 60.3166 -178.997 175.88 -131.432 265.632C-83.8669 355.383 31.6965 385.336 126.686 332.533C221.676 279.73 260.121 164.167 212.556 74.415C164.99 -15.3367 49.427 -45.2895 -45.5625 7.51353Z" fill="white"/>
</mask>
<g mask="url(#mask1_14287_484)">
<path d="M-304.694 162.149L-321.864 183.247L51.2271 468.194L68.3973 447.096L-304.694 162.149Z" fill="url(#paint12_linear_14287_484)" fill-opacity="0.05"/>
<path d="M-279.376 128.943L-296.546 150.042L76.5444 434.988L93.7147 413.89L-279.376 128.943Z" fill="url(#paint13_linear_14287_484)" fill-opacity="0.05"/>
<path d="M-254.062 95.7348L-271.232 116.833L101.858 401.78L119.029 380.682L-254.062 95.7348Z" fill="url(#paint14_linear_14287_484)" fill-opacity="0.05"/>
<path d="M-228.746 62.5302L-245.916 83.6284L127.175 368.575L144.345 347.477L-228.746 62.5302Z" fill="url(#paint15_linear_14287_484)" fill-opacity="0.05"/>
<path d="M-203.426 29.3256L-220.597 50.4238L152.494 335.371L169.665 314.272L-203.426 29.3256Z" fill="url(#paint16_linear_14287_484)" fill-opacity="0.05"/>
<path d="M-178.109 -3.87802L-195.279 17.2202L177.812 302.167L194.982 281.069L-178.109 -3.87802Z" fill="url(#paint17_linear_14287_484)" fill-opacity="0.05"/>
<path d="M-152.792 -37.0831L-169.962 -15.9849L203.129 268.962L220.299 247.864L-152.792 -37.0831Z" fill="url(#paint18_linear_14287_484)" fill-opacity="0.05"/>
<path d="M-127.476 -70.2921L-144.647 -49.1938L228.444 235.753L245.614 214.655L-127.476 -70.2921Z" fill="url(#paint19_linear_14287_484)" fill-opacity="0.05"/>
<path d="M-102.158 -103.496L-119.328 -82.3975L253.763 202.549L270.933 181.451L-102.158 -103.496Z" fill="url(#paint20_linear_14287_484)" fill-opacity="0.05"/>
<path d="M-76.8406 -136.699L-94.0109 -115.601L279.08 169.346L296.25 148.248L-76.8406 -136.699Z" fill="url(#paint21_linear_14287_484)" fill-opacity="0.05"/>
<path d="M-51.5243 -169.906L-68.6946 -148.808L304.396 136.139L321.567 115.041L-51.5243 -169.906Z" fill="url(#paint22_linear_14287_484)" fill-opacity="0.05"/>
</g>
</g>
<defs>
<linearGradient id="paint0_linear_14287_484" x1="390" y1="242" x2="0" y2="242" gradientUnits="userSpaceOnUse">
<stop stop-color="#509170"/>
<stop offset="1" stop-color="#2E6C63"/>
</linearGradient>
<linearGradient id="paint1_linear_14287_484" x1="703.194" y1="366.304" x2="339.25" y2="70.1179" gradientUnits="userSpaceOnUse">
<stop stop-color="white"/>
<stop offset="1" stop-color="white" stop-opacity="0"/>
</linearGradient>
<linearGradient id="paint2_linear_14287_484" x1="677.876" y1="399.51" x2="313.933" y2="103.323" gradientUnits="userSpaceOnUse">
<stop stop-color="white"/>
<stop offset="0.714" stop-color="white" stop-opacity="0"/>
</linearGradient>
<linearGradient id="paint3_linear_14287_484" x1="652.562" y1="432.718" x2="288.618" y2="136.532" gradientUnits="userSpaceOnUse">
<stop stop-color="white"/>
<stop offset="1" stop-color="white" stop-opacity="0"/>
</linearGradient>
<linearGradient id="paint4_linear_14287_484" x1="627.245" y1="465.922" x2="263.301" y2="169.736" gradientUnits="userSpaceOnUse">
<stop stop-color="white"/>
<stop offset="1" stop-color="white" stop-opacity="0"/>
</linearGradient>
<linearGradient id="paint5_linear_14287_484" x1="601.926" y1="499.127" x2="237.983" y2="202.94" gradientUnits="userSpaceOnUse">
<stop stop-color="white"/>
<stop offset="1" stop-color="white" stop-opacity="0"/>
</linearGradient>
<linearGradient id="paint6_linear_14287_484" x1="576.608" y1="532.331" x2="212.664" y2="236.144" gradientUnits="userSpaceOnUse">
<stop stop-color="white"/>
<stop offset="1" stop-color="white" stop-opacity="0"/>
</linearGradient>
<linearGradient id="paint7_linear_14287_484" x1="551.29" y1="565.536" x2="187.347" y2="269.35" gradientUnits="userSpaceOnUse">
<stop stop-color="white"/>
<stop offset="1" stop-color="white" stop-opacity="0"/>
</linearGradient>
<linearGradient id="paint8_linear_14287_484" x1="525.977" y1="598.744" x2="162.033" y2="302.558" gradientUnits="userSpaceOnUse">
<stop stop-color="white"/>
<stop offset="1" stop-color="white" stop-opacity="0"/>
</linearGradient>
<linearGradient id="paint9_linear_14287_484" x1="500.658" y1="631.949" x2="136.714" y2="335.762" gradientUnits="userSpaceOnUse">
<stop stop-color="white"/>
<stop offset="1" stop-color="white" stop-opacity="0"/>
</linearGradient>
<linearGradient id="paint10_linear_14287_484" x1="475.34" y1="665.152" x2="111.396" y2="368.965" gradientUnits="userSpaceOnUse">
<stop stop-color="white"/>
<stop offset="1" stop-color="white" stop-opacity="0"/>
</linearGradient>
<linearGradient id="paint11_linear_14287_484" x1="450.023" y1="698.358" x2="86.0795" y2="402.172" gradientUnits="userSpaceOnUse">
<stop stop-color="white"/>
<stop offset="1" stop-color="white" stop-opacity="0"/>
</linearGradient>
<linearGradient id="paint12_linear_14287_484" x1="-313.279" y1="172.698" x2="50.6651" y2="468.884" gradientUnits="userSpaceOnUse">
<stop stop-color="white"/>
<stop offset="1" stop-color="white" stop-opacity="0"/>
</linearGradient>
<linearGradient id="paint13_linear_14287_484" x1="-287.961" y1="139.492" x2="75.9825" y2="435.679" gradientUnits="userSpaceOnUse">
<stop stop-color="white"/>
<stop offset="1" stop-color="white" stop-opacity="0"/>
</linearGradient>
<linearGradient id="paint14_linear_14287_484" x1="-262.647" y1="106.284" x2="101.297" y2="402.47" gradientUnits="userSpaceOnUse">
<stop stop-color="white"/>
<stop offset="1" stop-color="white" stop-opacity="0"/>
</linearGradient>
<linearGradient id="paint15_linear_14287_484" x1="-237.331" y1="73.0793" x2="126.613" y2="369.266" gradientUnits="userSpaceOnUse">
<stop stop-color="white"/>
<stop offset="1" stop-color="white" stop-opacity="0"/>
</linearGradient>
<linearGradient id="paint16_linear_14287_484" x1="-212.011" y1="39.8747" x2="151.932" y2="336.061" gradientUnits="userSpaceOnUse">
<stop stop-color="white"/>
<stop offset="1" stop-color="white" stop-opacity="0"/>
</linearGradient>
<linearGradient id="paint17_linear_14287_484" x1="-186.694" y1="6.6711" x2="177.25" y2="302.857" gradientUnits="userSpaceOnUse">
<stop stop-color="white"/>
<stop offset="1" stop-color="white" stop-opacity="0"/>
</linearGradient>
<linearGradient id="paint18_linear_14287_484" x1="-161.377" y1="-26.534" x2="202.567" y2="269.652" gradientUnits="userSpaceOnUse">
<stop stop-color="white"/>
<stop offset="1" stop-color="white" stop-opacity="0"/>
</linearGradient>
<linearGradient id="paint19_linear_14287_484" x1="-136.062" y1="-59.743" x2="227.882" y2="236.443" gradientUnits="userSpaceOnUse">
<stop stop-color="white"/>
<stop offset="1" stop-color="white" stop-opacity="0"/>
</linearGradient>
<linearGradient id="paint20_linear_14287_484" x1="-110.743" y1="-92.9466" x2="253.201" y2="203.24" gradientUnits="userSpaceOnUse">
<stop stop-color="white"/>
<stop offset="1" stop-color="white" stop-opacity="0"/>
</linearGradient>
<linearGradient id="paint21_linear_14287_484" x1="-85.4257" y1="-126.15" x2="278.518" y2="170.037" gradientUnits="userSpaceOnUse">
<stop stop-color="white"/>
<stop offset="1" stop-color="white" stop-opacity="0"/>
</linearGradient>
<linearGradient id="paint22_linear_14287_484" x1="-60.1095" y1="-159.357" x2="303.834" y2="136.83" gradientUnits="userSpaceOnUse">
<stop stop-color="white"/>
<stop offset="1" stop-color="white" stop-opacity="0"/>
</linearGradient>
<clipPath id="clip0_14287_484">
<rect width="390" height="482" fill="white"/>
</clipPath>
</defs>
</svg>
