<?xml version="1.0" encoding="UTF-8"?>
<svg version="1.1" xmlns="http://www.w3.org/2000/svg" width="1080" height="1080">
<path d="M0 0 C18.42446211 56.26886945 18.42446211 56.26886945 27 83 C34.07766366 78.37314714 40.91062565 73.46810808 47.68945312 68.41601562 C48.82737305 67.58166992 48.82737305 67.58166992 49.98828125 66.73046875 C51.00208862 65.97866333 51.00208862 65.97866333 52.03637695 65.21166992 C54.03945791 63.97565217 55.69961873 63.43310737 58 63 C58.71542969 64.01835937 59.43085938 65.03671875 60.16796875 66.0859375 C67.15891527 76.02194048 74.23076574 85.89593655 81.35888672 95.73388672 C82.9922715 97.98932818 84.62353737 100.24628393 86.25390625 102.50390625 C86.79072021 103.24697021 87.32753418 103.99003418 87.88061523 104.75561523 C88.95329208 106.24229068 90.02443968 107.7300708 91.09399414 109.21899414 C93.93832341 113.1734748 96.81533968 117.09828619 99.7421875 120.9921875 C100.65387695 122.21808594 100.65387695 122.21808594 101.58398438 123.46875 C102.75466845 125.04157747 103.93529359 126.60706699 105.12695312 128.1640625 C105.64966797 128.87046875 106.17238281 129.576875 106.7109375 130.3046875 C107.17806152 130.92327637 107.64518555 131.54186523 108.12646484 132.17919922 C109 134 109 134 108.86938477 136.04370117 C107.77189531 138.51328359 106.57360155 139.42897724 104.37890625 140.99609375 C103.61771484 141.5478125 102.85652344 142.09953125 102.07226562 142.66796875 C101.24404297 143.25191406 100.41582031 143.83585938 99.5625 144.4375 C98.70720703 145.05367187 97.85191406 145.66984375 96.97070312 146.3046875 C95.18963348 147.58642857 93.40523743 148.86355902 91.61767578 150.13623047 C88.46481946 152.38104535 85.3277302 154.64712344 82.19165039 156.9152832 C80.72430122 157.97627947 79.25603069 159.0360026 77.78686523 160.09448242 C65.08368463 169.24916436 52.49946901 178.56926291 40 188 C44.20446366 192.54353331 48.93965141 195.95939896 54 199.5 C59.06034859 203.04060104 63.79553634 206.45646669 68 211 C60.29335634 221.96981711 52.50697916 232.87773028 44.64111328 243.73388672 C42.46464681 246.73923658 40.29205289 249.74736991 38.12060547 252.75634766 C37.04693135 254.24279917 35.97175408 255.7281662 34.89501953 257.21240234 C32.04033464 261.15112287 29.21776006 265.108708 26.43359375 269.09765625 C25.55574219 270.34385742 25.55574219 270.34385742 24.66015625 271.61523438 C23.53535697 273.21316351 22.41905231 274.81711557 21.3125 276.42773438 C20.80589844 277.14380859 20.29929687 277.85988281 19.77734375 278.59765625 C19.33640381 279.23195557 18.89546387 279.86625488 18.44116211 280.51977539 C16.63264482 282.37731229 15.58512011 282.83404469 13 283 C11.10327148 282.05053711 11.10327148 282.05053711 9.12109375 280.52734375 C8.374646 279.9645874 7.62819824 279.40183105 6.85913086 278.82202148 C6.05999268 278.20012939 5.26085449 277.5782373 4.4375 276.9375 C2.71898125 275.63511147 1.00022465 274.33303674 -0.71875 273.03125 C-1.59660156 272.35964844 -2.47445312 271.68804688 -3.37890625 270.99609375 C-7.40562101 267.92954943 -11.48317672 264.93349117 -15.5625 261.9375 C-16.34399414 261.36153076 -17.12548828 260.78556152 -17.93066406 260.19213867 C-30.8615236 250.66743724 -43.91878622 241.31668441 -57 232 C-57.16798096 232.64686768 -57.33596191 233.29373535 -57.5090332 233.96020508 C-59.45863325 241.30367683 -61.75100923 248.49258242 -64.1875 255.6875 C-64.55552734 256.78255859 -64.92355469 257.87761719 -65.30273438 259.00585938 C-66.19904876 261.67152163 -67.09817383 264.3361985 -68 267 C-89.67359478 260.16872197 -111.32709171 253.27889233 -132.9375 246.25 C-134.35840439 245.78868683 -134.35840439 245.78868683 -135.80801392 245.3180542 C-138.48588486 244.44822363 -141.16300257 243.57611873 -143.83984375 242.703125 C-145.04013718 242.3133699 -145.04013718 242.3133699 -146.26467896 241.91574097 C-151.76929193 240.11535403 -151.76929193 240.11535403 -154 239 C-151.78301336 230.49702565 -149.18475446 222.14135674 -146.47265625 213.78515625 C-146.03791924 212.43963546 -145.60338878 211.09404791 -145.16905212 209.74839783 C-144.26369921 206.94513932 -143.35676306 204.1424004 -142.44848633 201.34008789 C-141.29560016 197.78307795 -140.14534203 194.22522578 -138.99611759 190.66703129 C-137.88496427 187.22696992 -136.77266571 183.78727924 -135.66015625 180.34765625 C-135.45390184 179.70977739 -135.24764744 179.07189854 -135.0351429 178.41469002 C-134.43817694 176.56931449 -133.84031395 174.72422923 -133.24243164 172.87915039 C-132.90506485 171.83755264 -132.56769806 170.7959549 -132.22010803 169.72279358 C-130.50026283 164.47520198 -128.7462842 159.2388526 -127 154 C-139.21 154 -151.42 154 -164 154 C-164 123.97 -164 93.94 -164 63 C-120.44 62.505 -120.44 62.505 -76 62 C-80.95 46.655 -80.95 46.655 -86 31 C-86 29.68 -86 28.36 -86 27 C-77.54107511 24.21651351 -69.08172235 21.43433212 -60.62184906 18.65372944 C-56.69186891 17.36197483 -52.76202707 16.06980298 -48.83251953 14.77661133 C-45.02676444 13.52416454 -41.22062231 12.27290022 -37.41423035 11.02239037 C-35.97595415 10.54965864 -34.5378083 10.07653012 -33.09980774 9.60296059 C-28.40373704 8.05661569 -23.70432502 6.52105536 -19 5 C-18.27076324 4.7639291 -17.54152649 4.5278582 -16.79019165 4.28463364 C-14.58639549 3.5740108 -12.38052436 2.87026055 -10.17382812 2.16870117 C-9.16065144 1.84161273 -9.16065144 1.84161273 -8.12700653 1.50791645 C-5.29241818 0.61399377 -2.9933771 0 0 0 Z M-18.30444336 25.36108398 C-19.67607887 25.80670937 -19.67607887 25.80670937 -21.07542419 26.26133728 C-22.07018265 26.58630692 -23.0649411 26.91127655 -24.08984375 27.24609375 C-25.61213341 27.74194725 -25.61213341 27.74194725 -27.16517639 28.24781799 C-29.31665436 28.949069 -31.46788728 29.65107219 -33.61889648 30.35375977 C-36.91902468 31.43146661 -40.22019534 32.50593325 -43.52148438 33.58007812 C-45.60683466 34.26022101 -47.69212319 34.94055326 -49.77734375 35.62109375 C-50.77007797 35.94403915 -51.76281219 36.26698456 -52.78562927 36.59971619 C-53.70320511 36.89995193 -54.62078094 37.20018768 -55.56616211 37.50952148 C-56.37588974 37.77377426 -57.18561737 38.03802704 -58.0198822 38.31028748 C-60.03936684 38.96630089 -60.03936684 38.96630089 -62 40 C-61.58824869 41.5846187 -61.1701861 43.16759702 -60.75 44.75 C-60.51796875 45.63171875 -60.2859375 46.5134375 -60.046875 47.421875 C-58.51412619 52.66067316 -56.72610327 57.82169018 -55 63 C-46.42 63 -37.84 63 -29 63 C-29 85.44 -29 107.88 -29 131 C-22.874375 129.081875 -16.74875 127.16375 -10.4375 125.1875 C-8.51736084 124.58832764 -6.59722168 123.98915527 -4.61889648 123.37182617 C-3.07787168 122.88749506 -1.53693181 122.40289361 0.00390625 121.91796875 C0.78858276 121.67421509 1.57325928 121.43046143 2.38171387 121.17932129 C7.05933724 119.70275616 11.5236532 118.00771576 16 116 C14.66775338 108.14061498 12.44506621 100.73395259 9.9296875 93.1796875 C9.32980515 91.35523605 9.32980515 91.35523605 8.71780396 89.493927 C7.65745434 86.26946117 6.59013389 83.04734577 5.52130127 79.82568359 C4.46294527 76.6313255 3.41151927 73.43468947 2.359375 70.23828125 C-2.72324463 54.81318229 -7.8535797 39.40391648 -13 24 C-14.83761986 24 -16.57268312 24.79707532 -18.30444336 25.36108398 Z M-144 82 C-144 99.49 -144 116.98 -144 135 C-136.08 135 -128.16 135 -120 135 C-118.845 131.431875 -117.69 127.86375 -116.5 124.1875 C-116.13455078 123.06625732 -115.76910156 121.94501465 -115.39257812 120.78979492 C-115.10833984 119.90396729 -114.82410156 119.01813965 -114.53125 118.10546875 C-114.23798828 117.19949951 -113.94472656 116.29353027 -113.64257812 115.36010742 C-112.86864823 112.9252317 -112.86864823 112.9252317 -113 110 C-111.57627075 110.47457642 -111.57627075 110.47457642 -110.1237793 110.95874023 C-109.17200554 111.27599312 -109.17200554 111.27599312 -108.20100403 111.59965515 C-106.7579519 112.08067943 -105.31490815 112.56172885 -103.87187195 113.0428009 C-99.83811381 114.38751151 -95.80420454 115.73176584 -91.77001953 117.07519531 C-84.06620196 119.64114341 -76.36383844 122.21108368 -68.66796875 124.80078125 C-67.42764893 125.217229 -66.1873291 125.63367676 -64.90942383 126.06274414 C-62.58943442 126.84205674 -60.27023264 127.62371882 -57.9519043 128.40795898 C-56.92363525 128.75286377 -55.89536621 129.09776855 -54.8359375 129.453125 C-53.94438965 129.75379883 -53.0528418 130.05447266 -52.13427734 130.36425781 C-50.0516965 131.09515886 -50.0516965 131.09515886 -48 131 C-48 114.83 -48 98.66 -48 82 C-79.68 82 -111.36 82 -144 82 Z M44.6875 94.6875 C44.11837891 95.12255859 43.54925781 95.55761719 42.96289062 96.00585938 C39.31694706 98.83136099 36.32220977 101.67779023 33 105 C35.64 112.92 38.28 120.84 41 129 C38.03 129.66 35.06 130.32 32 131 C29.96631632 131.59263611 27.94133678 132.21654333 25.92944336 132.87939453 C24.82898178 133.239617 23.7285202 133.59983948 22.5947113 133.97097778 C21.43810501 134.35438324 20.28149872 134.7377887 19.08984375 135.1328125 C17.88179581 135.52951141 16.67374786 135.92621033 15.42909241 136.33493042 C12.24706514 137.3806915 9.06630293 138.43013471 5.8861084 139.48144531 C2.62888497 140.55718809 -0.62996402 141.62798296 -3.88867188 142.69921875 C-10.26060822 144.79496512 -16.63092067 146.89558805 -23 149 C-21.89804708 150.74713179 -20.79405068 152.49297481 -19.68920898 154.23828125 C-19.0746434 155.21063721 -18.46007782 156.18299316 -17.82688904 157.18481445 C-15.40149219 160.922284 -12.77578688 164.46891703 -10.0625 168 C-9.02396663 169.3652978 -7.98620945 170.73118636 -6.94921875 172.09765625 C-6.4495459 172.75523926 -5.94987305 173.41282227 -5.43505859 174.09033203 C-2.72634568 177.69488331 -0.12481721 181.37604989 2.4765625 185.05859375 C3.86219171 187.10924959 3.86219171 187.10924959 6 188 C14.63219994 181.88845877 23.18159349 175.67329333 31.68676758 169.38623047 C37.09971483 165.38912625 42.53848632 161.4304391 48 157.5 C55.2201826 152.30367463 62.39371317 147.04668735 69.54492188 141.75585938 C74.00081428 138.46136377 78.48134499 135.20794581 83 132 C79.07083644 126.02346626 75.01944534 120.15898638 70.8125 114.375 C70.2558667 113.60881348 69.6992334 112.84262695 69.12573242 112.05322266 C67.98157075 110.47904594 66.8367975 108.90531354 65.69140625 107.33203125 C64.04472435 105.06166383 62.41142195 102.78224073 60.78125 100.5 C59.79182384 99.1248869 58.80224801 97.74988147 57.8125 96.375 C57.12667847 95.40699463 57.12667847 95.40699463 56.42700195 94.41943359 C55.33364139 92.90958446 54.17310875 91.44875726 53 90 C49.60027144 90 47.27300817 92.66443312 44.6875 94.6875 Z M-100 135 C-103.30604646 142.85763033 -105.99428452 150.86032877 -108.58984375 158.9765625 C-109.02026477 160.31408834 -109.45098084 161.65151926 -109.88197327 162.98886108 C-111.00930103 166.48985356 -112.13230168 169.99221938 -113.25445557 173.49487305 C-114.38220495 177.01184681 -115.51465941 180.52730496 -116.64648438 184.04296875 C-118.75145611 190.58390775 -120.84598561 197.12813165 -122.93572998 203.6739502 C-123.86554816 206.57981197 -124.80247338 209.48322899 -125.74267578 212.38574219 C-126.20502703 213.82738597 -126.66713552 215.26910766 -127.12890625 216.7109375 C-127.68880249 218.4441626 -127.68880249 218.4441626 -128.26000977 220.21240234 C-129.17104792 223.16365945 -129.17104792 223.16365945 -129 227 C-122.50585153 229.14242317 -116.00946965 231.27796361 -109.51147461 233.40869141 C-107.30033944 234.13463883 -105.08972401 234.86217128 -102.87963867 235.59130859 C-99.70626354 236.63794567 -96.53107441 237.67890329 -93.35546875 238.71875 C-92.36475876 239.04685669 -91.37404877 239.37496338 -90.35331726 239.7130127 C-88.97222527 240.16347961 -88.97222527 240.16347961 -87.56323242 240.62304688 C-86.7527092 240.88952026 -85.94218597 241.15599365 -85.10710144 241.43054199 C-82.88109919 242.13044835 -82.88109919 242.13044835 -80 242 C-77.69 234.74 -75.38 227.48 -73 220 C-76.71062353 216.28937647 -80.41379804 213.32369338 -84.625 210.25 C-85.305625 209.74339844 -85.98625 209.23679687 -86.6875 208.71484375 C-87.66589844 207.99748047 -87.66589844 207.99748047 -88.6640625 207.265625 C-89.55279053 206.61255371 -89.55279053 206.61255371 -90.45947266 205.94628906 C-91.982703 204.82553197 -91.982703 204.82553197 -94 205 C-77.69921875 182.4296875 -77.69921875 182.4296875 -76.09326172 180.20654297 C-75.03046916 178.73465833 -73.96829521 177.26232683 -72.90673828 175.78955078 C-70.0500344 171.82803469 -67.18036914 167.87671222 -64.29296875 163.9375 C-63.6896875 163.11121094 -63.08640625 162.28492188 -62.46484375 161.43359375 C-61.30071665 159.83963511 -60.13288027 158.24837733 -58.9609375 156.66015625 C-58.44144531 155.94730469 -57.92195313 155.23445313 -57.38671875 154.5 C-56.69388794 153.55640625 -56.69388794 153.55640625 -55.98706055 152.59375 C-54.82449018 151.0290567 -54.82449018 151.0290567 -55 149 C-59.96018001 147.32171193 -64.92238137 145.64958805 -69.88647461 143.98291016 C-71.5716011 143.41620191 -73.25618344 142.84787274 -74.94018555 142.27783203 C-77.37404087 141.45428751 -79.80985517 140.63677591 -82.24609375 139.8203125 C-82.98709824 139.56814972 -83.72810272 139.31598694 -84.49156189 139.05618286 C-89.60009765 137.35280175 -94.7241722 136.07469758 -100 135 Z M-39 161 C-40.81358643 163.28776692 -42.57332214 165.59383857 -44.3125 167.9375 C-44.84359375 168.6495459 -45.3746875 169.3615918 -45.921875 170.09521484 C-53.18952518 179.88730469 -60.27918592 189.82367301 -67 200 C-57.97262798 207.00496953 -48.88224101 213.86641781 -39.51538086 220.41162109 C-31.73302412 225.86024727 -24.10558365 231.51365214 -16.47314453 237.16943359 C-12.17565396 240.35034024 -7.86836269 243.51794114 -3.5625 246.6875 C-2.00114562 247.83702709 -0.43993669 248.98675179 1.12109375 250.13671875 C1.7752124 250.61842529 2.42933105 251.10013184 3.10327148 251.59643555 C5.07533622 253.05574822 7.0389098 254.52598151 9 256 C12.16790156 254.64492915 13.80615319 253.31217904 15.77734375 250.5 C16.28483154 249.78602051 16.79231934 249.07204102 17.31518555 248.33642578 C17.85054932 247.56540527 18.38591309 246.79438477 18.9375 246 C20.08818194 244.37214149 21.23923496 242.74454524 22.390625 241.1171875 C23.27717773 239.85600098 23.27717773 239.85600098 24.18164062 238.56933594 C25.99118411 236.01245682 27.8258546 233.47595627 29.671875 230.9453125 C30.26105713 230.13707031 30.85023926 229.32882812 31.45727539 228.49609375 C32.59055852 226.94304652 33.72511435 225.39092702 34.86108398 223.83984375 C35.37485596 223.13214844 35.88862793 222.42445313 36.41796875 221.6953125 C37.09508911 220.7674292 37.09508911 220.7674292 37.78588867 219.82080078 C39.03682722 217.94477029 40.03494153 216.03575361 41 214 C38.0985036 211.79177755 35.17662869 209.61227239 32.25 207.4375 C31.425 206.80908203 30.6 206.18066406 29.75 205.53320312 C28.95078125 204.94345703 28.1515625 204.35371094 27.328125 203.74609375 C26.5949707 203.19622803 25.86181641 202.6463623 25.10644531 202.07983398 C23.09075568 200.81429742 23.09075568 200.81429742 20.96606445 201.15820312 C18.75480057 202.10498543 17.103215 203.23209094 15.21484375 204.72265625 C14.17166992 205.52993164 14.17166992 205.52993164 13.10742188 206.35351562 C11.65649762 207.49623275 10.205979 208.63946509 8.75585938 209.78320312 C8.06169922 210.32009766 7.36753906 210.85699219 6.65234375 211.41015625 C6.02320068 211.90652588 5.39405762 212.40289551 4.74584961 212.91430664 C3 214 3 214 0 214 C-1.32763672 212.63330078 -1.32763672 212.63330078 -2.6796875 210.6953125 C-3.18959229 209.97593506 -3.69949707 209.25655762 -4.22485352 208.51538086 C-4.76940186 207.72655518 -5.3139502 206.93772949 -5.875 206.125 C-7.04788009 204.46203008 -8.22106559 202.79927552 -9.39453125 201.13671875 C-10.29292725 199.8535376 -10.29292725 199.8535376 -11.20947266 198.54443359 C-13.95298712 194.64575515 -16.75986894 190.79377091 -19.5625 186.9375 C-22.89059265 182.34402296 -26.19472796 177.73583384 -29.44921875 173.08984375 C-30.00343506 172.29908447 -30.55765137 171.5083252 -31.12866211 170.69360352 C-32.19118805 169.17413223 -33.25070998 167.65255488 -34.30688477 166.12866211 C-35.51360523 164.40185688 -36.75326413 162.69814023 -38 161 C-38.33 161 -38.66 161 -39 161 Z " fill="#FFFFFF" transform="translate(273,399)"/>
<path d="M0 0 C56.47761194 0 56.47761194 0 67 10 C73.76700269 18.54779287 73.65171324 27.63565723 73 38 C71.70244227 45.66738656 66.38850786 51.59039441 60.1875 56 C58 57 58 57 56 57 C56.44279297 57.71953857 56.88558594 58.43907715 57.34179688 59.18041992 C60.09765625 63.65869141 62.85351562 68.13696289 65.609375 72.61523438 C66.13108276 73.46276779 66.13108276 73.46276779 66.66333008 74.3274231 C67.36817547 75.47312295 68.07243795 76.61918162 68.77612305 77.76559448 C70.60929839 80.75039482 72.45340688 83.72755563 74.31640625 86.69384766 C74.6880188 87.28869461 75.05963135 87.88354156 75.44250488 88.49641418 C76.47500501 90.14829573 77.51179442 91.79749401 78.54882812 93.4465332 C80 96 80 96 80 98 C59.92753962 100.26540232 59.92753962 100.26540232 53.92578125 95.62109375 C52.04189552 92.58175811 50.54682438 89.62927146 49.12841797 86.35986328 C46.84106986 81.57632653 43.79724289 77.20590507 40.9375 72.75 C39.79366891 70.93675883 38.65641426 69.1193439 37.52734375 67.296875 C37.03999756 66.51666992 36.55265137 65.73646484 36.05053711 64.93261719 C35 63 35 63 35 61 C30.38 61 25.76 61 21 61 C21 73.21 21 85.42 21 98 C14.07 98 7.14 98 0 98 C0 65.66 0 33.32 0 0 Z M21 19 C21 26.59 21 34.18 21 42 C25.95 42.12375 25.95 42.12375 31 42.25 C32.53527344 42.30462402 32.53527344 42.30462402 34.1015625 42.36035156 C40.0535993 42.43175758 45.22717938 41.84875948 50 38 C52.29599234 34.27090059 52.52651867 31.36258327 52 27 C49.40590548 22.70353096 48.19920144 21.38713351 43.40625 19.83984375 C38.75663326 18.79293485 34.24388697 18.77536074 29.5 18.875 C26.695 18.91625 23.89 18.9575 21 19 Z " fill="#FFFFFF" transform="translate(610,549)"/>
<path d="M0 0 C56.58823529 0 56.58823529 0 71 14 C79.78550402 24.31140735 83.35834489 34.36160835 83.3125 47.8125 C83.32861328 48.74642578 83.34472656 49.68035156 83.36132812 50.64257812 C83.36950682 62.42807924 79.50109397 73.64951262 71.55078125 82.53515625 C51.8426171 101.15118032 25.72085373 98 0 98 C0 65.66 0 33.32 0 0 Z M21 19 C21 38.47 21 57.94 21 78 C39.47628996 78.31392952 39.47628996 78.31392952 54.5859375 69.5390625 C60.34838385 63.55174019 62.10080821 56.60613035 62.375 48.4375 C62.13786878 40.80618617 59.97022949 33.88579808 55 28 C44.1821011 19.39109954 34.75954269 19 21 19 Z " fill="#FFFFFF" transform="translate(700,549)"/>
<path d="M0 0 C1.00023193 0.00523682 2.00046387 0.01047363 3.03100586 0.01586914 C4.1105957 0.0190918 5.19018555 0.02231445 6.30249023 0.02563477 C8.00695312 0.03820312 8.00695312 0.03820312 9.74584961 0.05102539 C11.45611328 0.05779297 11.45611328 0.05779297 13.20092773 0.06469727 C16.02845312 0.07652792 18.85587601 0.09301129 21.68334961 0.11352539 C21.88585327 0.66949905 22.08835693 1.22547272 22.29699707 1.79829407 C24.49374941 7.82854137 26.69236188 13.85810847 28.8921814 19.88723755 C29.75112273 22.24139337 30.60986789 24.59562078 31.46841431 26.94992065 C36.10523294 39.66123891 40.75997069 52.36498031 45.50756836 65.03540039 C45.88088287 66.03270676 46.25419739 67.03001312 46.63882446 68.05754089 C48.40471023 72.77255409 50.17648559 77.48523563 51.95678711 82.19482422 C52.58845361 83.87730143 53.21997287 85.55983394 53.85131836 87.24243164 C54.14100998 88.00251526 54.4307016 88.76259888 54.72917175 89.54571533 C55.84919563 92.54191439 56.68334961 94.88662354 56.68334961 98.11352539 C49.42334961 98.11352539 42.16334961 98.11352539 34.68334961 98.11352539 C32.95084961 93.22540039 32.95084961 93.22540039 31.18334961 88.23852539 C30.81790039 87.21259277 30.45245117 86.18666016 30.07592773 85.12963867 C29.64957031 83.91896729 29.64957031 83.91896729 29.21459961 82.68383789 C28.92133789 81.8564209 28.62807617 81.02900391 28.32592773 80.17651367 C27.68334961 78.11352539 27.68334961 78.11352539 27.68334961 76.11352539 C15.80334961 76.44352539 3.92334961 76.77352539 -8.31665039 77.11352539 C-10.57659629 83.27589871 -10.57659629 83.27589871 -12.83398438 89.43920898 C-13.1157251 90.20571777 -13.39746582 90.97222656 -13.68774414 91.76196289 C-13.97576904 92.54748535 -14.26379395 93.33300781 -14.56054688 94.14233398 C-15.31665039 96.11352539 -15.31665039 96.11352539 -16.31665039 98.11352539 C-23.57665039 98.11352539 -30.83665039 98.11352539 -38.31665039 98.11352539 C-34.94178175 86.86396325 -34.94178175 86.86396325 -33.22290039 82.22192383 C-32.6453299 80.65513885 -32.6453299 80.65513885 -32.05609131 79.05670166 C-31.64707581 77.95654724 -31.2380603 76.85639282 -30.81665039 75.72290039 C-30.38394836 74.55136414 -29.95124634 73.37982788 -29.50543213 72.17279053 C-28.3493768 69.04428469 -27.19073472 65.91676265 -26.03077698 62.78970337 C-24.83596929 59.56700827 -23.64422823 56.34317993 -22.45239258 53.11938477 C-21.97724032 51.83422614 -21.50208165 50.54906988 -21.0269165 49.26391602 C-20.79324623 48.63191284 -20.55957596 47.99990967 -20.31882477 47.34875488 C-19.61633974 45.44926028 -18.91341646 43.54992837 -18.21038818 41.65063477 C-15.63125868 34.68035125 -13.06328509 27.70626104 -10.51977539 20.72290039 C-10.2552356 19.99721863 -9.9906958 19.27153687 -9.71813965 18.52386475 C-8.55883843 15.34237653 -7.40248743 12.15988516 -6.25024414 8.97583008 C-5.86481445 7.91783203 -5.47938477 6.85983398 -5.08227539 5.76977539 C-4.76033203 4.8809668 -4.43838867 3.9921582 -4.10668945 3.07641602 C-2.92618501 0.14339509 -2.92618501 0.14339509 0 0 Z M8.68334961 26.11352539 C7.25515562 30.06308952 5.83110033 34.01411336 4.41088867 37.96655273 C3.92700317 39.31136471 3.44198217 40.65576867 2.95581055 41.99975586 C2.25784295 43.92984992 1.56395063 45.86136676 0.87084961 47.79321289 C0.4519043 48.95578613 0.03295898 50.11835938 -0.39868164 51.31616211 C-1.42058244 53.93955321 -1.42058244 53.93955321 -1.31665039 56.11352539 C5.61334961 56.11352539 12.54334961 56.11352539 19.68334961 56.11352539 C18.15511423 48.96458302 18.15511423 48.96458302 16.02709961 42.14868164 C15.72674805 41.32948242 15.42639648 40.5102832 15.11694336 39.66625977 C14.65481445 38.43359375 14.65481445 38.43359375 14.18334961 37.17602539 C13.87526367 36.32717773 13.56717773 35.47833008 13.24975586 34.60375977 C11.62734789 29.95746483 11.62734789 29.95746483 8.68334961 26.11352539 Z " fill="#FFFFFF" transform="translate(830.316650390625,433.886474609375)"/>
<path d="M0 0 C7.92 0 15.84 0 24 0 C33.1059579 24.34853959 42.20938518 48.69851758 51.13232422 73.11486816 C51.83492595 75.03596857 52.53918678 76.95646303 53.24511719 78.87634277 C54.22420901 81.5408347 55.19701954 84.207532 56.16796875 86.875 C56.45766037 87.66013977 56.74735199 88.44527954 57.04582214 89.25421143 C58.14694957 92.29824493 59 94.73631657 59 98 C52.07 98 45.14 98 38 98 C33.44615385 87.75384615 33.44615385 87.75384615 31.75 83.0625 C31.41484375 82.14597656 31.0796875 81.22945312 30.734375 80.28515625 C30 78 30 78 30 76 C18.12 76.33 6.24 76.66 -6 77 C-8.26183971 83.53589241 -8.26183971 83.53589241 -10.51733398 90.07397461 C-10.93994507 91.28839233 -10.93994507 91.28839233 -11.37109375 92.52734375 C-11.8031311 93.77632446 -11.8031311 93.77632446 -12.24389648 95.05053711 C-13 97 -13 97 -14 98 C-15.56172745 98.08685603 -17.12729344 98.10702219 -18.69140625 98.09765625 C-19.63564453 98.09443359 -20.57988281 98.09121094 -21.55273438 98.08789062 C-22.54595703 98.07951172 -23.53917969 98.07113281 -24.5625 98.0625 C-25.55958984 98.05798828 -26.55667969 98.05347656 -27.58398438 98.04882812 C-30.05604849 98.03700007 -32.52799518 98.02051849 -35 98 C-34.41690789 91.74076146 -32.47196587 86.34770527 -30.23828125 80.49609375 C-29.85543472 79.47567993 -29.4725882 78.45526611 -29.07814026 77.40393066 C-27.829343 74.07933246 -26.57092056 70.75846608 -25.3125 67.4375 C-24.45054219 65.14751492 -23.58938243 62.8572293 -22.72900391 60.56665039 C-21.423118 57.09005744 -20.1168123 53.61363157 -18.80792236 50.13816833 C-14.46730759 38.60887503 -10.21322036 27.04841582 -5.9750061 15.48117065 C-5.14826333 13.22541047 -4.32026351 10.97011476 -3.4921875 8.71484375 C-3.25141983 8.05585083 -3.01065216 7.39685791 -2.7625885 6.71789551 C-1.92110667 4.42660428 -1.09260276 2.18520553 0 0 Z M11 26 C9.57180601 29.94956413 8.14775072 33.90058797 6.72753906 37.85302734 C6.24365357 39.19783932 5.75863256 40.54224328 5.27246094 41.88623047 C4.57449334 43.81632453 3.88060102 45.74784137 3.1875 47.6796875 C2.76855469 48.84226074 2.34960938 50.00483398 1.91796875 51.20263672 C0.89606795 53.82602782 0.89606795 53.82602782 1 56 C8.26 56 15.52 56 23 56 C21.61924504 51.88575783 20.2342092 47.77353371 18.83740234 43.66479492 C18.36337962 42.26595679 17.89201345 40.86621556 17.42333984 39.46557617 C16.7500961 37.4550967 16.06743628 35.4480345 15.3828125 33.44140625 C14.77010498 31.62684937 14.77010498 31.62684937 14.14501953 29.77563477 C13.30547044 26.87928091 13.30547044 26.87928091 11 26 Z " fill="#FFFFFF" transform="translate(543,549)"/>
<path d="M0 0 C-1.99613268 6.7186905 -4.7291421 12.80734808 -8 19 C-9.02480469 18.57847656 -10.04960938 18.15695312 -11.10546875 17.72265625 C-12.46605181 17.1690397 -13.82673416 16.61566714 -15.1875 16.0625 C-15.86103516 15.78470703 -16.53457031 15.50691406 -17.22851562 15.22070312 C-25.87301075 11.72073681 -36.19667088 9.93191712 -45.25 13.125 C-48.21051614 14.78561546 -48.21051614 14.78561546 -49.25 17.875 C-48.98717635 21.16029565 -48.46509988 22.68463911 -45.953125 24.8515625 C-41.39398357 27.53233766 -36.05884518 28.59685591 -31 30 C-19.93199701 33.21547487 -8.55747093 36.77034535 -2 47 C-1.443125 47.845625 -0.88625 48.69125 -0.3125 49.5625 C2.61607746 57.23258383 2.81765243 65.31549336 0 73 C-4.16945028 81.38592444 -10.39224979 86.49812723 -19 90 C-25.1320036 91.80421991 -31.12996352 92.38764398 -37.5 92.375 C-38.79115723 92.37258301 -38.79115723 92.37258301 -40.10839844 92.37011719 C-51.1946441 92.16232647 -63.62460703 90.25026198 -73 84 C-73.94507688 81.71138781 -74.13007488 80.47275947 -73.47094727 78.07714844 C-73.02319946 77.10310059 -73.02319946 77.10310059 -72.56640625 76.109375 C-72.24736328 75.40039062 -71.92832031 74.69140625 -71.59960938 73.9609375 C-71.25736328 73.23132813 -70.91511719 72.50171875 -70.5625 71.75 C-70.22412109 71.00492188 -69.88574219 70.25984375 -69.53710938 69.4921875 C-68.70173696 67.65672135 -67.85222033 65.82770445 -67 64 C-65.93265625 64.43119141 -65.93265625 64.43119141 -64.84375 64.87109375 C-62.07424933 65.97052465 -59.29512232 67.03003207 -56.5 68.0625 C-55.12328125 68.57490234 -55.12328125 68.57490234 -53.71875 69.09765625 C-45.32259529 71.88431105 -33.22012748 73.11482144 -25.0625 69.125 C-21.97164638 67.34321154 -21.97164638 67.34321154 -21 65 C-20.85624578 61.62177584 -20.92463652 59.22609045 -22 56 C-25.34581128 54.36074 -28.87389492 53.40725329 -32.45703125 52.4140625 C-33.48763672 52.12273438 -34.51824219 51.83140625 -35.58007812 51.53125 C-37.72213469 50.93069758 -39.86535805 50.33429026 -42.00976562 49.7421875 C-51.49296778 47.04789455 -61.77526814 43.74676876 -67.2890625 34.94140625 C-71.46319577 26.75830326 -72.68765584 18.1084909 -70.19921875 9.1015625 C-66.8275795 1.57040953 -61.56366565 -2.88451812 -54.16015625 -6.31640625 C-36.47565713 -12.71672308 -15.98637561 -9.37662415 0 0 Z " fill="#FFFFFF" transform="translate(862,556)"/>
<path d="M0 0 C-1.99613268 6.7186905 -4.7291421 12.80734808 -8 19 C-10.50599917 18.00207533 -13.0077829 16.99677739 -15.5 15.96484375 C-16.325 15.62582031 -17.15 15.28679687 -18 14.9375 C-18.825 14.59589844 -19.65 14.25429688 -20.5 13.90234375 C-27.99732138 11.19627932 -37.62555565 10.48410907 -45.25 13.0625 C-48.30675028 14.82420391 -48.30675028 14.82420391 -49.25 18.4375 C-49.39042882 22.08345912 -49.39042882 22.08345912 -46.8515625 24.1015625 C-43.90833242 26.06102801 -41.52078784 26.99998606 -38.125 27.9375 C-36.98675781 28.27007812 -35.84851563 28.60265625 -34.67578125 28.9453125 C-32.85626953 29.46738281 -32.85626953 29.46738281 -31 30 C-19.08014729 33.47510487 -7.85814776 37.23695772 -1.125 48.484375 C2.41725361 56.40524766 2.90833137 64.82634833 0 73 C-3.95822702 81.43532276 -10.48405316 86.5354754 -19 90 C-25.1320036 91.80421991 -31.12996352 92.38764398 -37.5 92.375 C-38.79115723 92.37258301 -38.79115723 92.37258301 -40.10839844 92.37011719 C-51.1946441 92.16232647 -63.62460703 90.25026198 -73 84 C-73.94507688 81.71138781 -74.13007488 80.47275947 -73.47094727 78.07714844 C-73.02319946 77.10310059 -73.02319946 77.10310059 -72.56640625 76.109375 C-72.24736328 75.40039062 -71.92832031 74.69140625 -71.59960938 73.9609375 C-71.25736328 73.23132813 -70.91511719 72.50171875 -70.5625 71.75 C-70.22412109 71.00492188 -69.88574219 70.25984375 -69.53710938 69.4921875 C-68.70173696 67.65672135 -67.85222033 65.82770445 -67 64 C-65.93265625 64.43119141 -65.93265625 64.43119141 -64.84375 64.87109375 C-62.07424933 65.97052465 -59.29512232 67.03003207 -56.5 68.0625 C-55.12328125 68.57490234 -55.12328125 68.57490234 -53.71875 69.09765625 C-45.31838377 71.88570884 -33.38352776 72.97771909 -25.0625 69.4375 C-21.74595577 67.23343875 -21.74595577 67.23343875 -20.75 63.5625 C-21.05313761 59.24278904 -22.01450941 58.06012786 -25 55 C-27.68556107 53.72137723 -27.68556107 53.72137723 -30.75 53 C-31.8946875 52.67773438 -33.039375 52.35546875 -34.21875 52.0234375 C-35.4665625 51.68570313 -36.714375 51.34796875 -38 51 C-49.98730903 47.67340604 -60.16945151 44.57169024 -67.80859375 34.125 C-72.04678866 26.56572777 -72.50375654 17.3945441 -70.1953125 9.11328125 C-66.84573641 1.57095993 -61.56079091 -2.8858507 -54.16015625 -6.31640625 C-36.47565713 -12.71672308 -15.98637561 -9.37662415 0 0 Z " fill="#FFFFFF" transform="translate(497,441)"/>
<path d="M0 0 C20.79 0 41.58 0 63 0 C63 6.27 63 12.54 63 19 C48.81 19 34.62 19 20 19 C20 25.27 20 31.54 20 38 C32.87 38 45.74 38 59 38 C59 44.27 59 50.54 59 57 C46.13 57 33.26 57 20 57 C20 63.93 20 70.86 20 78 C34.19 78 48.38 78 63 78 C63 84.6 63 91.2 63 98 C42.21 98 21.42 98 0 98 C0 65.66 0 33.32 0 0 Z " fill="#FFFFFF" transform="translate(596,434)"/>
<path d="M0 0 C55.38622129 0 55.38622129 0 65.03515625 8.87109375 C71.33487116 15.28514105 73.78604356 21.2783908 74.12109375 30.23828125 C73.7604443 40.1386903 70.99371346 47.47340901 63.8125 54.375 C54.02485889 62.4363683 43.28282291 63.17023945 31.0625 63.0625 C27.741875 63.041875 24.42125 63.02125 21 63 C21 74.55 21 86.1 21 98 C14.07 98 7.14 98 0 98 C0 65.66 0 33.32 0 0 Z M21 19 C21 26.92 21 34.84 21 43 C25.7334375 43.0928125 25.7334375 43.0928125 30.5625 43.1875 C31.5429126 43.21481201 32.5233252 43.24212402 33.53344727 43.27026367 C40.32466926 43.33429932 45.22087579 42.49408583 50.4375 37.8125 C52.51658948 34.07013894 52.80687104 31.18723604 52 27 C50.16293565 23.40574367 48.01174924 21.73079634 44.375 20.1875 C36.92958452 17.9526198 28.6433631 18.83014749 21 19 Z " fill="#FFFFFF" transform="translate(512,434)"/>
<path d="M0 0 C-1.93624298 6.20477864 -4.25609141 12.10825719 -7 18 C-10.58383952 17.38452845 -13.71348105 16.40793378 -17.0625 15 C-26.10307513 11.21103785 -35.4144143 10.5005677 -44.875 13.5625 C-51.77970012 16.44699627 -56.14899935 20.66097784 -59.4375 27.375 C-62.51769356 36.09554801 -62.51450354 47.09647474 -59.25 55.75 C-55.68116935 63.04819694 -51.32967396 66.64486755 -44 70 C-34.24886675 73.29178383 -23.02993695 71.25852448 -14 67 C-13.30261719 66.62617187 -12.60523438 66.25234375 -11.88671875 65.8671875 C-10 65 -10 65 -7 65 C-4.69 70.61 -2.38 76.22 0 82 C-3.96212361 85.96212361 -5.81668253 86.95505695 -10.9375 88.6875 C-12.14277344 89.10386719 -13.34804688 89.52023437 -14.58984375 89.94921875 C-26.72506871 93.68848051 -42.17349568 93.82396887 -54 89 C-54.845625 88.6596875 -55.69125 88.319375 -56.5625 87.96875 C-68.01888216 82.79940683 -75.39537504 74.59564414 -80.21875 63.09375 C-85.67272043 48.60177144 -86.0755524 32.41230266 -79.7109375 18.1015625 C-73.20881533 5.41025452 -64.16609811 -2.89276492 -50.5 -7.4375 C-33.49445599 -11.74010752 -14.78390119 -9.77580458 0 0 Z " fill="#FFFFFF" transform="translate(507,556)"/>
<path d="M0 0 C1.13665504 3.40996511 0.91583208 3.86305848 -0.43359375 7.01171875 C-0.75263672 7.76904297 -1.07167969 8.52636719 -1.40039062 9.30664062 C-1.74263672 10.09232422 -2.08488281 10.87800781 -2.4375 11.6875 C-2.77587891 12.48478516 -3.11425781 13.28207031 -3.46289062 14.10351562 C-4.3000701 16.07265607 -5.1489353 18.03682084 -6 20 C-9.97780988 18.43828943 -13.84733014 16.70855196 -17.71875 14.90234375 C-25.96474684 11.64065664 -36.69950694 11.64651929 -44.9375 14.90234375 C-53.10361627 19.24832608 -56.93257372 25.2389573 -59.578125 33.890625 C-61.58920637 43.94603186 -60.00617164 53.68788872 -54.52734375 62.3203125 C-50.32434632 67.70571346 -45.67994729 70.59782071 -39 72 C-29.61340493 73.01922697 -22.15480628 72.46299435 -13.55078125 68.19140625 C-11.01169446 67.00546219 -8.75817211 66.43236211 -6 66 C-4.8265684 68.60130627 -3.66107492 71.20568508 -2.5 73.8125 C-2.16613281 74.55048828 -1.83226562 75.28847656 -1.48828125 76.04882812 C-1.17246094 76.76103516 -0.85664062 77.47324219 -0.53125 78.20703125 C-0.23798828 78.8616333 0.05527344 79.51623535 0.35742188 80.19067383 C1 82 1 82 1 85 C-14.68449533 92.81137267 -31.90271132 96.24615621 -49.125 91.375 C-61.20199402 86.94265053 -71.1724848 79.78562542 -77.375 68.3125 C-84.52800508 52.69510558 -84.80326525 36.31728835 -79.00390625 20.23828125 C-73.49429781 8.09426541 -63.60279771 -0.65950247 -51.25 -5.3125 C-35.45428326 -10.78557729 -13.99783204 -9.81044638 0 0 Z " fill="#FFFFFF" transform="translate(752,440)"/>
<path d="M0 0 C6.93 0 13.86 0 21 0 C21 25.74 21 51.48 21 78 C35.19 78 49.38 78 64 78 C64 84.6 64 91.2 64 98 C42.88 98 21.76 98 0 98 C0 65.66 0 33.32 0 0 Z " fill="#FFFFFF" transform="translate(895,434)"/>
<path d="M0 0 C6.93 0 13.86 0 21 0 C21 32.34 21 64.68 21 98 C14.07 98 7.14 98 0 98 C0 65.66 0 33.32 0 0 Z " fill="#FFFFFF" transform="translate(765,434)"/>
<path d="M0 0 C2.97 0 5.94 0 9 0 C11.64 4.62 14.28 9.24 17 14 C17.33 9.38 17.66 4.76 18 0 C19.98 0 21.96 0 24 0 C24 8.25 24 16.5 24 25 C15 25 15 25 13.09765625 23.390625 C12.75605469 22.68421875 12.41445313 21.9778125 12.0625 21.25 C11.70285156 20.55390625 11.34320312 19.8578125 10.97265625 19.140625 C10.65167969 18.43421875 10.33070313 17.7278125 10 17 C9.34 15.68 8.68 14.36 8 13 C7.67 16.96 7.34 20.92 7 25 C4.69 25 2.38 25 0 25 C0 16.75 0 8.5 0 0 Z " fill="#FFFFFF" transform="translate(886,621)"/>
<path d="M0 0 C6.27 0 12.54 0 19 0 C19 1.98 19 3.96 19 6 C15.04 6 11.08 6 7 6 C7 7.32 7 8.64 7 10 C10.63 10 14.26 10 18 10 C18 11.65 18 13.3 18 15 C14.37 15 10.74 15 7 15 C7 16.65 7 18.3 7 20 C11.29 20 15.58 20 20 20 C20 21.65 20 23.3 20 25 C13.4 25 6.8 25 0 25 C0 16.75 0 8.5 0 0 Z " fill="#FFFFFF" transform="translate(915,621)"/>
<path d="M0 0 C8.25 0 16.5 0 25 0 C25 1.98 25 3.96 25 6 C22.03 6 19.06 6 16 6 C16 12.27 16 18.54 16 25 C14.02 25 12.04 25 10 25 C10 18.73 10 12.46 10 6 C6.7 6 3.4 6 0 6 C0 4.02 0 2.04 0 0 Z " fill="#FFFFFF" transform="translate(935,621)"/>
<path d="M0 0 C-0.33 1.32 -0.66 2.64 -1 4 C-5.75 5.125 -5.75 5.125 -8 4 C-8 2.35 -8 0.7 -8 -1 C-4.37673261 -2.2077558 -3.35853631 -1.54311128 0 0 Z " fill="#FFFFFF" transform="translate(883,642)"/>
</svg>
