<svg width="22" height="22" viewBox="0 0 22 22" fill="none" xmlns="http://www.w3.org/2000/svg">
<g clip-path="url(#clip0_14037_728)">
<path d="M6.41667 0H3.66667C1.6445 0 0 1.6445 0 3.66667V6.41667C0 8.43883 1.6445 10.0833 3.66667 10.0833H6.41667C8.43883 10.0833 10.0833 8.43883 10.0833 6.41667V3.66667C10.0833 1.6445 8.43883 0 6.41667 0ZM8.25 6.41667C8.25 7.42775 7.42775 8.25 6.41667 8.25H3.66667C2.65558 8.25 1.83333 7.42775 1.83333 6.41667V3.66667C1.83333 2.65558 2.65558 1.83333 3.66667 1.83333H6.41667C7.42775 1.83333 8.25 2.65558 8.25 3.66667V6.41667ZM6.41667 4.58333V5.5C6.41667 6.006 6.006 6.41667 5.5 6.41667H4.58333C4.07733 6.41667 3.66667 6.006 3.66667 5.5V4.58333C3.66667 4.07733 4.07733 3.66667 4.58333 3.66667H5.5C6.006 3.66667 6.41667 4.07733 6.41667 4.58333ZM15.5833 10.0833H18.3333C20.3555 10.0833 22 8.43883 22 6.41667V3.66667C22 1.6445 20.3555 0 18.3333 0H15.5833C13.5612 0 11.9167 1.6445 11.9167 3.66667V6.41667C11.9167 8.43883 13.5612 10.0833 15.5833 10.0833ZM13.75 3.66667C13.75 2.65558 14.5723 1.83333 15.5833 1.83333H18.3333C19.3444 1.83333 20.1667 2.65558 20.1667 3.66667V6.41667C20.1667 7.42775 19.3444 8.25 18.3333 8.25H15.5833C14.5723 8.25 13.75 7.42775 13.75 6.41667V3.66667ZM15.5833 5.5V4.58333C15.5833 4.07733 15.994 3.66667 16.5 3.66667H17.4167C17.9227 3.66667 18.3333 4.07733 18.3333 4.58333V5.5C18.3333 6.006 17.9227 6.41667 17.4167 6.41667H16.5C15.994 6.41667 15.5833 6.006 15.5833 5.5ZM6.41667 11.9167H3.66667C1.6445 11.9167 0 13.5612 0 15.5833V18.3333C0 20.3555 1.6445 22 3.66667 22H6.41667C8.43883 22 10.0833 20.3555 10.0833 18.3333V15.5833C10.0833 13.5612 8.43883 11.9167 6.41667 11.9167ZM8.25 18.3333C8.25 19.3444 7.42775 20.1667 6.41667 20.1667H3.66667C2.65558 20.1667 1.83333 19.3444 1.83333 18.3333V15.5833C1.83333 14.5723 2.65558 13.75 3.66667 13.75H6.41667C7.42775 13.75 8.25 14.5723 8.25 15.5833V18.3333ZM6.41667 16.5V17.4167C6.41667 17.9227 6.006 18.3333 5.5 18.3333H4.58333C4.07733 18.3333 3.66667 17.9227 3.66667 17.4167V16.5C3.66667 15.994 4.07733 15.5833 4.58333 15.5833H5.5C6.006 15.5833 6.41667 15.994 6.41667 16.5ZM15.5833 13.2917V14.2083C15.5833 14.9673 14.9673 15.5833 14.2083 15.5833H13.2917C12.5327 15.5833 11.9167 14.9673 11.9167 14.2083V13.2917C11.9167 12.5327 12.5327 11.9167 13.2917 11.9167H14.2083C14.9673 11.9167 15.5833 12.5327 15.5833 13.2917ZM18.3333 16.9583C18.3333 17.7173 17.7173 18.3333 16.9583 18.3333C16.1993 18.3333 15.5833 17.7173 15.5833 16.9583C15.5833 16.1993 16.1993 15.5833 16.9583 15.5833C17.7173 15.5833 18.3333 16.1993 18.3333 16.9583ZM15.5833 19.7083V20.625C15.5833 21.384 14.9673 22 14.2083 22H13.2917C12.5327 22 11.9167 21.384 11.9167 20.625V19.7083C11.9167 18.9493 12.5327 18.3333 13.2917 18.3333H14.2083C14.9673 18.3333 15.5833 18.9493 15.5833 19.7083ZM22 13.2917V14.2083C22 14.9673 21.384 15.5833 20.625 15.5833H19.7083C18.9493 15.5833 18.3333 14.9673 18.3333 14.2083V13.2917C18.3333 12.5327 18.9493 11.9167 19.7083 11.9167H20.625C21.384 11.9167 22 12.5327 22 13.2917Z" fill="#509170"/>
</g>
<defs>
<clipPath id="clip0_14037_728">
<rect width="22" height="22" fill="white"/>
</clipPath>
</defs>
</svg>
