<svg width="24" height="24" viewBox="0 0 24 24" fill="none" xmlns="http://www.w3.org/2000/svg">
<g clip-path="url(#clip0_14146_1870)">
<path d="M18.713 12H14C13.4695 12 12.9608 11.7893 12.5858 11.4143C12.2107 11.0392 12 10.5305 12 10V5.27404C12.0013 4.81403 11.8969 4.35986 11.6947 3.94665C11.4925 3.53344 11.198 3.17227 10.834 2.89104C10.489 2.61786 10.0859 2.42762 9.65568 2.33503C9.22549 2.24244 8.77978 2.24997 8.35297 2.35704C5.92863 2.95886 3.7823 4.37011 2.26894 6.35741C0.755583 8.34471 -0.034155 10.789 0.0303304 13.2861C0.0948159 15.7832 1.00966 18.1835 2.62358 20.09C4.23749 21.9966 6.4538 23.2952 8.90597 23.771C11.6631 24.2988 14.5176 23.7525 16.885 22.244C19.2524 20.7355 20.9535 18.379 21.64 15.657C21.7474 15.2297 21.7553 14.7833 21.6629 14.3525C21.5704 13.9216 21.3803 13.5177 21.107 13.172C20.8224 12.8085 20.4592 12.5142 20.0445 12.3112C19.6299 12.1082 19.1746 12.0018 18.713 12ZM19.701 15.168C19.3181 16.7099 18.5325 18.1224 17.4246 19.2611C16.3167 20.3997 14.9263 21.2237 13.3955 21.6486C11.8647 22.0736 10.2485 22.0843 8.71217 21.6797C7.17586 21.2751 5.77459 20.4697 4.65168 19.3459C3.52877 18.222 2.72452 16.8201 2.32119 15.2834C1.91786 13.7468 1.92993 12.1306 2.35617 10.6002C2.7824 9.0697 3.6075 7.67993 4.74707 6.57299C5.88664 5.46604 7.29979 4.68165 8.84197 4.30004C8.9739 4.26708 9.11172 4.26547 9.24439 4.29534C9.37706 4.32521 9.50089 4.38572 9.60597 4.47204C9.73006 4.56665 9.83069 4.68857 9.90006 4.82835C9.96943 4.96812 10.0057 5.122 10.006 5.27804V10C10.006 11.0609 10.4274 12.0783 11.1775 12.8285C11.9277 13.5786 12.9451 14 14.006 14H18.718C18.8754 14.0007 19.0306 14.037 19.1719 14.1063C19.3133 14.1756 19.437 14.276 19.534 14.4C19.619 14.5066 19.6782 14.6314 19.707 14.7646C19.7358 14.8978 19.7344 15.0359 19.701 15.168Z" fill="#C5C7D1"/>
<path d="M23.651 7.4459C23.1906 5.75337 22.2962 4.2104 21.0564 2.96967C19.8165 1.72895 18.2742 0.833486 16.582 0.371895C16.4046 0.324204 16.2217 0.299998 16.038 0.299895C15.7737 0.297385 15.5116 0.347263 15.2668 0.446648C15.0219 0.546033 14.7992 0.692954 14.6115 0.878921C14.4237 1.06489 14.2747 1.28622 14.173 1.53011C14.0713 1.77401 14.019 2.03564 14.019 2.29989V6.9999C14.019 7.79554 14.3351 8.55861 14.8977 9.12122C15.4603 9.68382 16.2233 9.9999 17.019 9.9999H21.738C22.0467 9.99693 22.3505 9.92283 22.6259 9.78337C22.9012 9.64391 23.1408 9.44284 23.3258 9.19578C23.5109 8.94872 23.6365 8.66232 23.6929 8.35883C23.7493 8.05535 23.7349 7.74294 23.651 7.4459ZM21.153 7.9999H17.015C16.7498 7.9999 16.4954 7.89454 16.3079 7.707C16.1203 7.51947 16.015 7.26511 16.015 6.9999L16.007 2.30689C16.0143 2.3016 16.023 2.29848 16.032 2.2979H16.058C17.4201 2.66898 18.661 3.39081 19.657 4.39134C20.653 5.39187 21.3691 6.63611 21.734 7.9999H21.153Z" fill="#C5C7D1"/>
</g>
<defs>
<clipPath id="clip0_14146_1870">
<rect width="24" height="24" fill="white"/>
</clipPath>
</defs>
</svg>
